<?xml version="1.0" standalone="no"?>
  <!DOCTYPE svg PUBLIC "-//W3C//DTD SVG 1.1//EN" "http://www.w3.org/Graphics/SVG/1.1/DTD/svg11.dtd" >
  <svg>
  <metadata>
  Created by font-carrier
  </metadata>
  <defs>
  <font id="v_CCTheStorySoFar-Regular" horiz-adv-x="1495" vert-adv-y="1495" >
    <font-face
      
      font-family="v_CCTheStorySoFar"
      
      font-weight="400"
      
      font-stretch="normal"
      
      units-per-em="1000"
      
      ascent="0"
      
      descent="0"
      
    />
      <missing-glyph />

      

      
      <glyph glyph-name="uni24" unicode="&#x24;" d="M336 629L233 629L233 782L120 722L120 629L87 629Q65 629 50 621Q35 613 27.50 600.50Q20 588 19.50 571.50Q19 555 26 539L160 238L18 239L55 150L120 150L120 1L233 1L233 150L254 150Q284 150 300 160Q316 170 321.50 184Q327 198 325 213.50Q323 229 318 240L185 543L301 543L336 629Z"  horiz-adv-x="349" vert-adv-y="1000"  />

      
      <glyph glyph-name="uni25" unicode="&#x25;" d="M270 491L270 748Q270 768 255.50 783Q241 798 220 798L80 798Q59 798 44.50 783Q30 768 30 748L30 491Q30 470 44.50 455.50Q59 441 80 441L220 441Q241 441 255.50 455.50Q270 470 270 491M610 799L460 799L77 1L227 1L610 799M666 51L666 308Q666 328 651.50 343Q637 358 616 358L475 358Q455 358 440 343Q425 328 425 308L425 51Q425 30 440 15.50Q455 1 475 1L616 1Q637 1 651.50 15.50Q666 30 666 51M172 514L130 515L130 724L172 724L172 514M568 74L526 74L526 284L568 284L568 74Z"  horiz-adv-x="698" vert-adv-y="1000"  />

      
      <glyph glyph-name="uni26" unicode="&#x26;" d="M599 462L234 462L234 652L427 652L486 799L167 799Q127 799 99 774Q71 749 71 701L71 517Q71 492 77 473.50Q83 455 92.50 442.50Q102 430 113.50 421.50Q125 413 137 407L70 350L70 101Q70 59 98.50 30Q127 1 170 1L504 1L504 312L538 312L599 462M350 315L350 148L226 148L226 315L350 315Z"  horiz-adv-x="616" vert-adv-y="1000"  />

      
      <glyph glyph-name="uni27" unicode="&#x27;" d="M159 799L24 799L72 560L101 560L159 799Z"  horiz-adv-x="181" vert-adv-y="1000"  />

      
      <glyph glyph-name="uni28" unicode="&#x28;" d="M383-71L325 1L202 1L202 799L325 799L381 874L140 874Q98 874 69 845Q40 816 40 774L40 29Q40 8 48-10.50Q56-29 69.50-42.50Q83-56 101-63.50Q119-71 140-71L383-71Z"  horiz-adv-x="383" vert-adv-y="1000"  />

      
      <glyph glyph-name="uni29" unicode="&#x29;" d="M343 29L343 774Q343 816 314 845Q285 874 243 874L1 874L57 799L181 799L181 1L57 1L0-71L243-71Q264-71 282-63.50Q300-56 313.50-42.50Q327-29 335-10.50Q343 8 343 29Z"  horiz-adv-x="383" vert-adv-y="1000"  />

      
      <glyph glyph-name="uni2a" unicode="&#x2a;" d="M337 496L337 591L271 629L337 667L337 763L241 707L240 798L134 798L134 708L38 763L38 667L105 629L38 591L38 496L134 551L134 456L240 456L240 551L337 496Z"  horiz-adv-x="373" vert-adv-y="1000"  />

      
      <glyph glyph-name="uni2b" unicode="&#x2b;" d="M380 508L246 508L246 668L140 604L140 508L70 508L15 361L140 361L140 246L246 246L247 361L325 361L380 508Z"  horiz-adv-x="403" vert-adv-y="1000"  />

      
      <glyph glyph-name="uni2c" unicode="&#x2c;" d="M169 148L34 148L34-92L63-92L169 148Z"  horiz-adv-x="229" vert-adv-y="1000"  />

      
      <glyph glyph-name="uni2d" unicode="&#x2d;" d="M254 479L70 479L15 332L200 332L254 479Z"  horiz-adv-x="271" vert-adv-y="1000"  />

      
      <glyph glyph-name="uni2e" unicode="&#x2e;" d="M186 1L186 148L34 148L34 1L186 1Z"  horiz-adv-x="229" vert-adv-y="1000"  />

      
      <glyph glyph-name="uni2f" unicode="&#x2f;" d="M543 799L353 799L10 1L200 1L543 799Z"  horiz-adv-x="550" vert-adv-y="1000"  />

      
      <glyph glyph-name="uni30" unicode="&#x30;" d="M481 101L481 699Q481 720 473 738Q465 756 451.50 769.50Q438 783 420 791Q402 799 381 799L140 799Q119 799 101 791Q83 783 69.50 769.50Q56 756 48 738Q40 720 40 699L40 101Q40 80 48 61.50Q56 43 69.50 29.50Q83 16 101 8.50Q119 1 140 1L381 1Q402 1 420 8.50Q438 16 451.50 29.50Q465 43 473 61.50Q481 80 481 101M325 148L202 148L202 652L325 652L325 148Z"  horiz-adv-x="510" vert-adv-y="1000"  />

      
      <glyph glyph-name="uni31" unicode="&#x31;" d="M211 1L211 820L50 722L50 1L211 1Z"  horiz-adv-x="256" vert-adv-y="1000"  />

      
      <glyph glyph-name="uni32" unicode="&#x32;" d="M428 148L226 146L415 649Q425 677 424.50 704Q424 731 411.50 752Q399 773 375 786Q351 799 315 799L15 799L75 655L235 655L-12 1L367 0L428 148Z"  horiz-adv-x="443" vert-adv-y="1000"  />

      
      <glyph glyph-name="uni33" unicode="&#x33;" d="M441 101L441 350L374 407Q386 413 397.50 421.50Q409 430 418.50 442.50Q428 455 434 473.50Q440 492 440 517L440 701Q440 749 412 774Q384 799 344 799L79 799L24 652L277 652L277 462L155 462L109 315L285 315L285 148L66 148L-3 1L341 1Q384 1 412.50 30Q441 59 441 101Z"  horiz-adv-x="478" vert-adv-y="1000"  />

      
      <glyph glyph-name="uni34" unicode="&#x34;" d="M556 479L482 479L482 799L321 799L321 479L199 479L199 799L38 710L38 332L321 332L321 1L482 1L482 332L510 332L556 479Z"  horiz-adv-x="566" vert-adv-y="1000"  />

      
      <glyph glyph-name="uni35" unicode="&#x35;" d="M487 799L36 799L35 358L319 358L319 148L35 148L90 1L384 1Q424 1 453 26Q482 51 482 99L482 390Q482 415 472.50 434.50Q463 454 449 467.50Q435 481 418 489Q401 497 385 499L197 499L197 652L429 652L487 799Z"  horiz-adv-x="516" vert-adv-y="1000"  />

      
      <glyph glyph-name="uni36" unicode="&#x36;" d="M470 108L470 368Q470 387 462 407Q454 427 441 443Q428 459 411 469Q394 479 377 479L202 479L202 652L393 652L468 799Q466 799 442 799.50Q418 800 377 800.50Q336 801 291 801Q246 801 202 800.50Q158 800 129 799Q115 799 99 792Q83 785 69 771.50Q55 758 45.50 738.50Q36 719 36 693L37 102Q37 48 65.50 24.50Q94 1 144 1L361 1Q389 1 409.50 11Q430 21 443.50 37Q457 53 463.50 71.50Q470 90 470 108M320 148L202 148L202 332L320 332L320 148Z"  horiz-adv-x="510" vert-adv-y="1000"  />

      
      <glyph glyph-name="uni37" unicode="&#x37;" d="M470 799L59 799L5 652L259 652L48 1L209 1L470 799Z"  horiz-adv-x="468" vert-adv-y="1000"  />

      
      <glyph glyph-name="uni38" unicode="&#x38;" d="M487 101L487 350L420 407Q432 413 443.50 421.50Q455 430 464.50 442.50Q474 455 480 473.50Q486 492 486 517L486 701Q486 749 458 774Q430 799 390 799L142 799Q99 799 70.50 770Q42 741 42 699L42 450L109 393Q97 387 85.50 378.50Q74 370 64.50 357.50Q55 345 49 326.50Q43 308 43 283L43 99Q43 51 71 26Q99 1 139 1L387 1Q431 1 459 30Q487 59 487 101M323 462L203 462L203 652L323 652L323 462M331 148L208 148L207 315L331 315L331 148Z"  horiz-adv-x="531" vert-adv-y="1000"  />

      
      <glyph glyph-name="uni39" unicode="&#x39;" d="M488 99L488 799Q488 799 466 799Q444 799 409 799Q375 799 333 799.50Q291 800 251 800Q212 800 180 800Q148 800 134 800Q92 800 66 779.50Q40 759 40 721Q41 569 41 468Q41 367 40 325Q40 310 46.50 298Q53 286 63 277.50Q73 269 84.50 264.50Q96 260 105 259Q116 258 139 258Q162 258 186.50 259Q211 260 233 260Q256 260 267 259Q281 273 295.50 285.50Q310 298 327 308L327 148L44 148L99 1L393 1Q433 1 460.50 26Q488 51 488 99M325 651L324 439L203 439L202 652L325 651Z"  horiz-adv-x="528" vert-adv-y="1000"  />

      
      <glyph glyph-name="uni3a" unicode="&#x3a;" d="M186 332L186 479L34 479L34 332L186 332M186 1L186 148L34 148L34 1L186 1Z"  horiz-adv-x="229" vert-adv-y="1000"  />

      
      <glyph glyph-name="uni3b" unicode="&#x3b;" d="M186 332L186 479L34 479L34 332L186 332M169 148L34 148L34-92L63-92L169 148Z"  horiz-adv-x="229" vert-adv-y="1000"  />

      
      <glyph glyph-name="uni3c" unicode="&#x3c;" d="M386 1L184 400L386 799L226 799L26 399L226 1L386 1Z"  horiz-adv-x="407" vert-adv-y="1000"  />

      
      <glyph glyph-name="uni3d" unicode="&#x3d;" d="M358 589L70 589L15 442L303 442L358 589M358 361L70 361L15 214L303 214L358 361Z"  horiz-adv-x="374" vert-adv-y="1000"  />

      
      <glyph glyph-name="uni3e" unicode="&#x3e;" d="M386 399L186 799L26 799L227 400L26 1L186 1L386 399Z"  horiz-adv-x="404" vert-adv-y="1000"  />

      
      <glyph glyph-name="uni3f" unicode="&#x3f;" d="M514 701Q521 724 514 742.50Q507 761 492 773.50Q477 786 456.50 792.50Q436 799 416 799L60 799L5 652L341 652L272 442L191 442L136 286L327 286Q359 291 384.50 319.50Q410 348 424 396L514 701M303 1L303 148L152 148L152 1L303 1Z"  horiz-adv-x="541" vert-adv-y="1000"  />

      
      <glyph glyph-name="uni40" unicode="&#x40;" d="M751 699Q751 720 743 738Q735 756 721.50 769.50Q708 783 690 791Q672 799 651 799L140 799Q119 799 101 791Q83 783 69.50 769.50Q56 756 48 738Q40 720 40 699L40 101Q40 80 48 61.50Q56 43 69.50 29.50Q83 16 101 8.50Q119 1 140 1L365 1L432 148L175 148L174 652L621 652L621 359L606 359L537 585Q537 585 505 585Q474 585 432 585Q390 585 348.50 584.50Q307 584 287 584Q264 583 244.50 569Q225 555 225 531L223 272Q223 239 245 223.50Q267 208 293 208Q317 208 346 208Q375 208 400 208Q425 208 442 207.50Q459 207 459 207L492 259L558 100L640 100Q686 100 718.50 134Q751 168 751 235L751 699M470 341L359 341L359 460L432 461L470 341Z"  horiz-adv-x="790" vert-adv-y="1000"  />

      
      <glyph glyph-name="uni41" unicode="&#x41;" d="M537 0L398 798L117 798L63 651L117 651L0 0L171 0L196 147L340 147L363 0L537 0M328 236L206 236L262 585L274 585L328 236Z"  horiz-adv-x="539" vert-adv-y="1000"  />

      
      <glyph glyph-name="uni42" unicode="&#x42;" d="M501 100L501 349L434 406Q446 412 457.50 420.50Q469 429 478.50 441.50Q488 454 494 472.50Q500 491 500 516L500 700Q500 748 472.50 773Q445 798 404 798L60 798L5 651L56 651L56 0L401 0Q445 0 473 29Q501 58 501 100M338 461L217 461L217 651L338 651L338 461M345 147L222 147L222 314L345 314L345 147Z"  horiz-adv-x="538" vert-adv-y="1000"  />

      
      <glyph glyph-name="uni43" unicode="&#x43;" d="M400 798Q400 798 371.50 798.50Q343 799 301.50 799.50Q260 800 213 799.50Q166 799 129 798Q115 798 99 791Q83 784 69 770.50Q55 757 45.50 737.50Q36 718 36 692L37 101Q37 47 65.50 23.50Q94 0 144 0L315-1L391 147L202 147L202 651L325 651L400 798Z"  horiz-adv-x="397" vert-adv-y="1000"  />

      
      <glyph glyph-name="uni44" unicode="&#x44;" d="M501 100L501 698Q501 719 493 737Q485 755 471.50 768.50Q458 782 440 790Q422 798 401 798L60 798L5 651L56 651L56 0L401 0Q445 0 473 29Q501 58 501 100M345 147L222 147L222 651L345 651L345 147Z"  horiz-adv-x="541" vert-adv-y="1000"  />

      
      <glyph glyph-name="uni45" unicode="&#x45;" d="M442 147L217 147L217 331L348 331L402 478L217 478L217 651L388 651L442 798L60 798L5 651L56 651L56 0L388 0L442 147Z"  horiz-adv-x="441" vert-adv-y="1000"  />

      
      <glyph glyph-name="uni46" unicode="&#x46;" d="M442 799L60 799L5 652L56 652L57-118L217 41L217 332L348 332L402 479L217 479L217 652L388 652L442 799Z"  horiz-adv-x="444" vert-adv-y="1000"  />

      
      <glyph glyph-name="uni47" unicode="&#x47;" d="M471 0L471 478L292 478L237 331L320 331L320 147L202 147L202 651L393 651L468 798Q466 798 442 798.50Q418 799 377 799.50Q336 800 291 800Q246 800 202 799.50Q158 799 129 798Q115 798 99 791Q83 784 69 770.50Q55 757 45.50 737.50Q36 718 36 692L37 101Q37 47 65.50 23.50Q94 0 144 0L471 0Z"  horiz-adv-x="510" vert-adv-y="1000"  />

      
      <glyph glyph-name="uni48" unicode="&#x48;" d="M535 0L535 798L374 798L374 478L252 478L252 798L91 798L91 478L65 478L18 331L91 331L91 0L252 0L252 331L374 331L374 0L535 0Z"  horiz-adv-x="566" vert-adv-y="1000"  />

      
      <glyph glyph-name="uni49" unicode="&#x49;" d="M211 0L211 798L50 798L50 0L211 0Z"  horiz-adv-x="256" vert-adv-y="1000"  />

      
      <glyph glyph-name="uni4a" unicode="&#x4a;" d="M398 151L397 844L236 746L236 148L15 148L76 0L262 0Q313 0 340.50 14.50Q368 29 380.50 51.50Q393 74 395.50 100.50Q398 127 398 151Z"  horiz-adv-x="432" vert-adv-y="1000"  />

      
      <glyph glyph-name="uni4b" unicode="&#x4b;" d="M533 0L351 399L533 798L343 798L211 492L211 798L50 798L50 0L211 0L211 306L343 0L533 0Z"  horiz-adv-x="546" vert-adv-y="1000"  />

      
      <glyph glyph-name="uni4c" unicode="&#x4c;" d="M402 147L217 147L217 798L56 798L56 0L348 0L402 147Z"  horiz-adv-x="406" vert-adv-y="1000"  />

      
      <glyph glyph-name="uni4d" unicode="&#x4d;" d="M642 0L642 798L414 798L351 477L280 798L70 798L69 0L230 0L230 429L355-67L481 438L481 0L642 0Z"  horiz-adv-x="687" vert-adv-y="1000"  />

      
      <glyph glyph-name="uni4e" unicode="&#x4e;" d="M513 0L513 798L351 798L351 531L230 795L230 798L8 798L69 654L69 0L230 0L230 444L351 179L351 0L513 0Z"  horiz-adv-x="550" vert-adv-y="1000"  />

      
      <glyph glyph-name="uni4f" unicode="&#x4f;" d="M481 100L481 698Q481 719 473 737Q465 755 451.50 768.50Q438 782 420 790Q402 798 381 798L140 798Q119 798 101 790Q83 782 69.50 768.50Q56 755 48 737Q40 719 40 698L40 100Q40 79 48 60.50Q56 42 69.50 28.50Q83 15 101 7.50Q119 0 140 0L381 0Q402 0 420 7.50Q438 15 451.50 28.50Q465 42 473 60.50Q481 79 481 100M326 147L202 147L202 651L325 651L326 147Z"  horiz-adv-x="510" vert-adv-y="1000"  />

      
      <glyph glyph-name="uni50" unicode="&#x50;" d="M492 325L492 721Q492 759 466 779.50Q440 800 398 800L48 800L-11 652L44 652L44-129L205 30L205 308Q222 298 236 285.50Q250 273 264 259Q275 260 298 260Q321 260 345.50 259Q370 258 393 258Q416 258 427 259Q436 260 447.50 264.50Q459 269 469 277.50Q479 286 485.50 298Q492 310 492 325M330 652L329 439L207 439L207 651L330 652Z"  horiz-adv-x="528" vert-adv-y="1000"  />

      
      <glyph glyph-name="uni51" unicode="&#x51;" d="M543 0L481 142L481 698Q481 719 473 737Q465 755 451.50 768.50Q438 782 420 790Q402 798 381 798L140 798Q119 798 101 790Q83 782 69.50 768.50Q56 755 48 737Q40 719 40 698L40 100Q40 79 48 60.50Q56 42 69.50 28.50Q83 15 101 7.50Q119 0 140 0L295 0L327 72L367 0L543 0M326 285L229 285L289 147L202 147L202 651L325 651L326 285Z"  horiz-adv-x="528" vert-adv-y="1000"  />

      
      <glyph glyph-name="uni52" unicode="&#x52;" d="M512 0L407 300Q423 302 440 310Q457 318 471 331.50Q485 345 494.50 364.50Q504 384 504 409L504 700Q504 748 475 773Q446 798 406 798L60 798L5 651L56 651L56 0L218 0L218 285L247 285L346 0L512 0M341 441L217 441L217 651L341 651L341 441Z"  horiz-adv-x="541" vert-adv-y="1000"  />

      
      <glyph glyph-name="uni53" unicode="&#x53;" d="M428 799L129 799Q93 799 69 786Q45 773 32 752Q19 731 18 704Q17 677 28 649L218 146L15 146L76 0L291 0Q342 0 367.50 16.50Q393 33 402 56.50Q411 80 408 106Q405 132 398 151L209 655L369 655L428 799Z"  horiz-adv-x="429" vert-adv-y="1000"  />

      
      <glyph glyph-name="uni54" unicode="&#x54;" d="M482 798L60 798L5 651L160 651L160 0L321 0L321 651L427 651L482 798Z"  horiz-adv-x="481" vert-adv-y="1000"  />

      
      <glyph glyph-name="uni55" unicode="&#x55;" d="M478 796L322 796L322 187L204 185L200 799L41 800L41 107Q41 72 49 51Q57 30 71 18.50Q85 7 105.50 3.50Q126 0 151 0L232 0L330 72L330 0L478 0L478 796Z"  horiz-adv-x="517" vert-adv-y="1000"  />

      
      <glyph glyph-name="uni56" unicode="&#x56;" d="M528 798L355 798L271 351L182 798L10 798L193 0L346 0L528 798Z"  horiz-adv-x="528" vert-adv-y="1000"  />

      
      <glyph glyph-name="uni57" unicode="&#x57;" d="M766 798L593 798L509 351L385 847L271 351L182 798L10 798L193 0L346 0L389 207L431 0L584 0L766 798Z"  horiz-adv-x="765" vert-adv-y="1000"  />

      
      <glyph glyph-name="uni58" unicode="&#x58;" d="M543 0L371 399L543 798L353 798L276 620L200 798L10 798L181 399L10 0L200 0L276 178L353 0L543 0Z"  horiz-adv-x="550" vert-adv-y="1000"  />

      
      <glyph glyph-name="uni59" unicode="&#x59;" d="M543 799L353 799L276 621L200 799L10 799L197 361L197-103L358 51L358 361L543 799Z"  horiz-adv-x="550" vert-adv-y="1000"  />

      
      <glyph glyph-name="uni5a" unicode="&#x5a;" d="M497 147L246 147L483 798L79 798L24 651L249 651L10 0L442 0L497 147Z"  horiz-adv-x="500" vert-adv-y="1000"  />

      
      <glyph glyph-name="uni5b" unicode="&#x5b;" d="M387 749L348 844L46 844L46-48L348-48L383 47L178 47L178 749L387 749Z"  horiz-adv-x="385" vert-adv-y="1000"  />

      
      <glyph glyph-name="uni5c" unicode="&#x5c;" d="M543 1L200 799L10 799L353 1L543 1Z"  horiz-adv-x="550" vert-adv-y="1000"  />

      
      <glyph glyph-name="uni5d" unicode="&#x5d;" d="M343-48L343 844L41 844L6 749L211 749L211 47L16 47L53-48L343-48Z"  horiz-adv-x="385" vert-adv-y="1000"  />

      
      <glyph glyph-name="uni61" unicode="&#x61;" d="M414 0L414 519Q414 536 406.50 548.50Q399 561 388 569Q377 577 365.50 581Q354 585 346 585L116 586L46 444L283 444L281 361Q281 361 261.50 361.50Q242 362 215 362Q188 362 158 362Q129 362 109 362Q86 361 67 347Q48 333 47 309L43 63Q43 47 49 35Q55 23 65 15.50Q75 8 87.50 4Q100 0 113 0Q144 0 173 0Q203 0 218 0Q233 0 235 0L285 50L285 0L414 0M280 148L179 148L179 236L280 236L280 148Z"  horiz-adv-x="453" vert-adv-y="1000"  />

      
      <glyph glyph-name="uni62" unicode="&#x62;" d="M415 90Q416 141 415.50 192Q415 243 413.50 296Q412 349 411 404Q410 459 411 518Q411 533 405 545.50Q399 558 389.50 567Q380 576 369 581Q358 586 348 586Q330 586 307 586.50Q284 587 269 587Q255 587 253 587L174 532L178 814L49 708L49 70Q49 51 54.50 38Q60 25 67.50 16.50Q75 8 83.50 4Q92 0 99 0L344 0Q363 0 376.50 8.50Q390 17 398.50 30.50Q407 44 411 60Q415 76 415 90M283 441L282 147L181 147L181 443L283 441Z"  horiz-adv-x="463" vert-adv-y="1000"  />

      
      <glyph glyph-name="uni63" unicode="&#x63;" d="M355 586L89 586Q66 586 55.50 569Q45 552 45 531L45 36Q43 20 54.50 11Q66 2 83 0L283 0L347 146L182 146L180 440L284 440L355 586Z"  horiz-adv-x="361" vert-adv-y="1000"  />

      
      <glyph glyph-name="uni64" unicode="&#x64;" d="M397 70L397 828L268 728L271 532L192 587Q190 587 175 587Q161 587 137.50 587.50Q114 588 96 588Q86 588 74.50 583Q63 578 53.50 569Q44 560 38 547.50Q32 535 32 520Q33 401 29.50 296.50Q26 192 29 90Q29 76 33.50 60Q38 44 47 30.50Q56 17 69.50 8.50Q83 0 103 0L346 0Q353 0 361.50 4Q370 8 378 16.50Q386 25 391.50 38Q397 51 397 70M264 147L163 147L163 441L264 443L264 147Z"  horiz-adv-x="431" vert-adv-y="1000"  />

      
      <glyph glyph-name="uni65" unicode="&#x65;" d="M354 586L106 586Q67 586 49 565Q31 544 31 520L31 68Q31 55 35 43Q39 31 48.50 21.50Q58 12 73.50 6Q89 0 112 0L267 0L328 146L164 148L163 236L251 236L299 363L166 365L167 442L295 442L354 586Z"  horiz-adv-x="356" vert-adv-y="1000"  />

      
      <glyph glyph-name="uni66" unicode="&#x66;" d="M390 732L182 732Q155 732 129.50 720Q104 708 84.50 689Q65 670 53 646.50Q41 623 41 601L38-202L180-93L180 236L264 236L341 365L179 363L180 534Q180 552 191 563Q202 574 220 579.50Q238 585 260.50 586.50Q283 588 307 587L390 732Z"  horiz-adv-x="365" vert-adv-y="1000"  />

      
      <glyph glyph-name="uni67" unicode="&#x67;" d="M430-80L429 653L291 585L292 530L218 585L125 585Q105 585 89.50 576Q74 567 63.50 553.50Q53 540 47 524Q41 508 41 494Q42 391 43.50 289Q45 187 44 69Q44 54 50.50 41.50Q57 29 66.50 19.50Q76 10 87.50 5Q99 0 109 0L213 0L292 57L293-12Q293-30 287-40.50Q281-51 264-56Q247-61 215.50-62.50Q184-64 134-64L203-199L297-199Q324-199 348-189Q372-179 390.50-162Q409-145 419.50-124Q430-103 430-80M286 146L185 148L185 442L286 442L286 146Z"  horiz-adv-x="468" vert-adv-y="1000"  />

      
      <glyph glyph-name="uni68" unicode="&#x68;" d="M423 0L423 532Q424 540 419 549.50Q414 559 406 567Q398 575 388.50 580Q379 585 370 584Q336 581 309 583.50Q282 586 246 584Q223 583 205 563.50Q187 544 174 514Q175 541 176 579.50Q177 618 177.50 657.50Q178 697 178 733Q178 769 178 789Q178 810 178 812Q178 812 162 802.50Q146 793 124 779.50Q102 766 78 749.50Q54 733 38 720L38 0L181 0L181 365L264 443Q277 446 284 436L284 0L423 0Z"  horiz-adv-x="459" vert-adv-y="1000"  />

      
      <glyph glyph-name="uni69" unicode="&#x69;" d="M167 675L167 806L44 735L44 607L167 675M167 0L167 564L40 496L40 0L167 0Z"  horiz-adv-x="195" vert-adv-y="1000"  />

      
      <glyph glyph-name="uni6a" unicode="&#x6a;" d="M176 683L176 814L44 735L44 607L176 683M179 571L35 496L35-12Q35-30 30-40.50Q25-51 9-56.50Q-7-62-37.50-63Q-68-64-118-64L-49-199L45-199Q72-199 96-189Q120-179 138.50-162Q157-145 167.50-124Q178-103 178-80L179 571Z"  horiz-adv-x="223" vert-adv-y="1000"  />

      
      <glyph glyph-name="uni6b" unicode="&#x6b;" d="M465 669L327 669L193 476L200 816L46 723L45 0L187 0L188 275L266 360Q273 362 280 365Q287 368 291 363L291 0L432 0L432 400Q432 416 423 429Q414 442 398.50 450Q383 458 363 462Q343 466 321 465L465 669Z"  horiz-adv-x="487" vert-adv-y="1000"  />

      
      <glyph glyph-name="uni6c" unicode="&#x6c;" d="M171 0L171 820L34 708L33 0L171 0Z"  horiz-adv-x="203" vert-adv-y="1000"  />

      
      <glyph glyph-name="uni6d" unicode="&#x6d;" d="M642 0L642 520Q642 552 627 569Q612 586 585 585Q568 585 545 585Q522 585 508 585Q494 585 492 585L403 504L404 534Q405 561 384 574Q363 587 336 586Q319 586 299 585.50Q279 585 267 585Q256 585 254 585L168 502L168 612L32 517L32 0L169 0L168 362L272 454L272 0L407 0L406 362L510 454L510 0L642 0Z"  horiz-adv-x="680" vert-adv-y="1000"  />

      
      <glyph glyph-name="uni6e" unicode="&#x6e;" d="M424 523Q424 549 414.50 566.50Q405 584 390 593Q375 602 358 603Q341 604 326 597Q307 588 280.50 573Q254 558 230 543.50Q206 529 189 519Q172 509 172 509L172 596L34 521L34 0L180 0L179 383L284 438L284 0L424 0L424 523Z"  horiz-adv-x="466" vert-adv-y="1000"  />

      
      <glyph glyph-name="uni6f" unicode="&#x6f;" d="M402 528Q402 544 395.50 555Q389 566 380 573Q371 580 360.50 583Q350 586 342 586L81 586Q62 586 49.50 569Q37 552 35 537L34 72Q34 57 36 44Q38 31 44 21.50Q50 12 60.50 6Q71 0 88 0L348 0Q369 0 385 13.50Q401 27 401 47L402 528M269 146L171 147L172 442L269 442L269 146Z"  horiz-adv-x="442" vert-adv-y="1000"  />

      
      <glyph glyph-name="uni70" unicode="&#x70;" d="M409 499Q409 513 405 528.50Q401 544 392 557Q383 570 369.50 579Q356 588 336 588Q297 588 268 588Q240 588 213 588Q186 588 157 588Q129 588 91 588Q84 588 75.50 584Q67 580 59.50 572Q52 564 46.50 550.50Q41 537 41 518L41-199L169-83L168 57L247 0L342 0Q352 0 363.50 5Q375 10 384.50 19.50Q394 29 400 41.50Q406 54 406 69Q405 187 408.50 292Q412 397 409 499M275 147L174 147L174 442L275 442L275 147Z"  horiz-adv-x="431" vert-adv-y="1000"  />

      
      <glyph glyph-name="uni71" unicode="&#x71;" d="M419 653L281 585L282 530L208 585L114 585Q94 585 80.50 576Q67 567 58 553.50Q49 540 45 524Q41 508 41 494Q42 391 43.50 289Q45 187 44 69Q44 54 50 41.50Q56 29 65.50 19.50Q75 10 86 5Q97 0 107 0L204 0L282 57L281-195L418-66L419 653M276 442L276 147L175 147L175 442L276 442Z"  horiz-adv-x="460" vert-adv-y="1000"  />

      
      <glyph glyph-name="uni72" unicode="&#x72;" d="M402 429L402 526Q402 552 387 568.50Q372 585 340 585Q315 585 286.50 583.50Q258 582 241 584L165 523L167 617L37 523L37 0L171 0L171 365L278 449L278 337L402 429Z"  horiz-adv-x="419" vert-adv-y="1000"  />

      
      <glyph glyph-name="uni73" unicode="&#x73;" d="M368 583L138 583Q119 583 100 573.50Q81 564 67 551Q49 534 39.50 509Q30 484 28.50 457.50Q27 431 32.50 406Q38 381 51 365L226 145L62 145L7 0Q7 0 35 0Q63 0 102 0Q141 0 181 0Q222 0 247 0Q274 1 293 7.50Q312 14 325.50 24.50Q339 35 347 48Q355 61 361 76Q378 119 366.50 157.50Q355 196 330 229Q299 271 270.50 309.50Q242 348 220.50 378Q199 408 186.50 425.50Q174 443 174 443L288 443L368 583Z"  horiz-adv-x="384" vert-adv-y="1000"  />

      
      <glyph glyph-name="uni74" unicode="&#x74;" d="M346 585L223 585L223 813L93 714L93 585L51 585L-5 443L94 443L94 101Q94 74 102.50 54.50Q111 35 125 23Q139 11 155.50 5.50Q172 0 189 0L279 0L339 146L224 146L220 443L270 443L346 585Z"  horiz-adv-x="345" vert-adv-y="1000"  />

      
      <glyph glyph-name="uni75" unicode="&#x75;" d="M425 0L425 610L278 533L279 215L178 155L175 603L45 532L45 74Q45 48 54.50 30.50Q64 13 78.50 3.50Q93-6 110.50-7Q128-8 143 0Q162 9 186.50 24Q211 39 233.50 53.50Q256 68 271.50 78.50Q287 89 287 89L287 0L425 0Z"  horiz-adv-x="468" vert-adv-y="1000"  />

      
      <glyph glyph-name="uni76" unicode="&#x76;" d="M425 587L280 587L200 322L123 598L-2 524L154 0L234 0L425 587Z"  horiz-adv-x="412" vert-adv-y="1000"  />

      
      <glyph glyph-name="uni77" unicode="&#x77;" d="M597 587L453 587L378 322L289 616L200 322L120 609L-2 530L154 0L229 0L280 191L331 0L407 0L597 587Z"  horiz-adv-x="589" vert-adv-y="1000"  />

      
      <glyph glyph-name="uni78" unicode="&#x78;" d="M512 0L343 291L508 585L357 585L260 424L158 606L34 538L166 308L-3 0L167 0L255 174L352 0L512 0Z"  horiz-adv-x="515" vert-adv-y="1000"  />

      
      <glyph glyph-name="uni79" unicode="&#x79;" d="M420-80L420 605L277 530L277 147L185 147L185 605L42 533Q42 531 42.50 500Q43 469 43 415Q43 361 43.50 300.50Q44 240 44 178Q44 116 44 69Q44 54 50 41.50Q56 29 65.50 19.50Q75 10 86 5Q97 0 107 0L203 0L282 57L283-12Q283-30 277-40.50Q271-51 254-56Q237-61 205.50-62.50Q174-64 124-64L193-199L287-199Q314-199 338-189Q362-179 380.50-162Q399-145 409.50-124Q420-103 420-80Z"  horiz-adv-x="458" vert-adv-y="1000"  />

      
      <glyph glyph-name="uni7a" unicode="&#x7a;" d="M367 582L84 582L20 443L173 443L9 0L300 0L360 147L214 147L367 582Z"  horiz-adv-x="372" vert-adv-y="1000"  />

      
      <glyph glyph-name="unie5" unicode="&#xe5;" d="M457 68Q417 192 381.50 310Q346 428 300 548Q294 564 287 572Q280 580 273.50 583Q267 586 259.50 585.50Q252 585 244 585L106 586L36 444L187 444L217 361Q217 361 205 361Q194 361 176 361Q159 361 138 360.50Q117 360 97 360Q74 360 54.50 345.50Q35 331 35 307L33 63Q33 31 55 15Q77-1 103-1Q127-1 154-1Q182-1 206-1Q230-1 245-1Q261-1 261-1L312 50L345-36L457 68M280 148L169 148L169 236L252 238L280 148Z"  horiz-adv-x="447" vert-adv-y="1000"  />

      
      <glyph glyph-name="uni2020" unicode="&#x2020;" d="M356 585L223 585L223 813L93 664L93 585L31 581L27 443L94 443L92 4Q95-23 104.50-36Q114-49 125.50-52.50Q137-56 148.50-53.50Q160-51 167-48L319 73L329 200L224 129L220 443L278 440L356 585Z"  horiz-adv-x="353" vert-adv-y="1000"  />

      
      <glyph glyph-name="uni2022" unicode="&#x2022;" d="M248 516L38 516L37 295L247 295L248 516Z"  horiz-adv-x="293" vert-adv-y="1000"  />

      
      <glyph glyph-name="unidf" unicode="&#xdf;" d="M368 583L138 583Q119 583 100 573.50Q81 564 67 551Q49 534 38.50 508Q28 482 26 455Q24 428 30 403Q36 378 51 365L203 176Q208 166 213 149.50Q218 133 213 124Q206 113 199.50 109Q193 105 186.50 105.50Q180 106 173.50 108.50Q167 111 161 113L36 235L37 56Q37 56 59 34Q81 12 121-17Q143-33 173-35.50Q203-38 233.50-29.50Q264-21 291.50-3.50Q319 14 335 38Q348 57 353.50 83Q359 109 357.50 136Q356 163 349 187.50Q342 212 330 229Q300 271 272 309.50Q244 348 222.50 378Q201 408 187.50 425.50Q174 443 174 443L288 443L368 583Z"  horiz-adv-x="384" vert-adv-y="1000"  />

      
      <glyph glyph-name="uniae" unicode="&#xae;" d="M643 101L643 699Q643 720 635 738Q627 756 613.50 769.50Q600 783 582 791Q564 799 543 799L130 799Q109 799 91 791Q73 783 59.50 769.50Q46 756 38 738Q30 720 30 699L30 101Q30 80 38 61.50Q46 43 59.50 29.50Q73 16 91 8.50Q109 1 130 1L543 1Q564 1 582 8.50Q600 16 613.50 29.50Q627 43 635 61.50Q643 80 643 101M532 99L140 99L139 700L531 700L532 99M487 136L418 334Q428 335 439.50 340.50Q451 346 460.50 355.50Q470 365 476 377.50Q482 390 482 407L482 599Q482 631 462.50 647.50Q443 664 417 664L188 664L186 136L292 136L293 325L312 325L378 136L487 136M374 428L292 428L292 566L374 566L374 428Z"  horiz-adv-x="677" vert-adv-y="1000"  />

      
      <glyph glyph-name="unia9" unicode="&#xa9;" d="M643 101L643 699Q643 720 635 738Q627 756 613.50 769.50Q600 783 582 791Q564 799 543 799L130 799Q109 799 91 791Q73 783 59.50 769.50Q46 756 38 738Q30 720 30 699L30 101Q30 80 38 61.50Q46 43 59.50 29.50Q73 16 91 8.50Q109 1 130 1L543 1Q564 1 582 8.50Q600 16 613.50 29.50Q627 43 635 61.50Q643 80 643 101M532 99L140 99L139 700L531 700L532 99M481 661L235 661Q211 661 200.50 644.50Q190 628 190 606L190 175Q190 159 200.50 149.50Q211 140 228 138L427 138L473 245L298 245L295 555L430 555L481 661Z"  horiz-adv-x="677" vert-adv-y="1000"  />

      
      <glyph glyph-name="uni2122" unicode="&#x2122;" d="M566 479L566 797L452 797L420 669L385 797L280 797L279 479L360 479L360 635L422 467L485 639L485 479L566 479M263 797L51 797L24 724L101 724L101 479L182 479L182 724L235 724L263 797Z"  horiz-adv-x="593" vert-adv-y="1000"  />

      
      <glyph glyph-name="uni2211" unicode="&#x2211;" d="M573 491L482 617L388 364L309 616L210 364L132 612L30 510L188-35L290 225L366-35L573 491Z"  horiz-adv-x="591" vert-adv-y="1000"  />

      
      <glyph glyph-name="uni221A" unicode="&#x221A;" d="M395 483L304 608L210 356L132 603L30 501L188-44L395 483Z"  horiz-adv-x="421" vert-adv-y="1000"  />

      
      <glyph glyph-name="uni2248" unicode="&#x2248;" d="M476 518L385 613L260 424L150 618L47 522L166 308L33 93L136-31L257 155L364-23L460 93L343 291L476 518Z"  horiz-adv-x="515" vert-adv-y="1000"  />

      
      <glyph glyph-name="uni2026" unicode="&#x2026;" d="M870 1L870 148L719 148L719 1L870 1M521 1L521 148L370 148L370 1L521 1M186 1L186 148L34 148L34 1L186 1Z"  horiz-adv-x="1011" vert-adv-y="1000"  />

      
      <glyph glyph-name="uni2013" unicode="&#x2013;" d="M389 479L70 479L15 332L335 332L389 479Z"  horiz-adv-x="407" vert-adv-y="1000"  />

      
      <glyph glyph-name="uni2014" unicode="&#x2014;" d="M574 479L70 479L15 332L519 332L574 479Z"  horiz-adv-x="588" vert-adv-y="1000"  />

      
      <glyph glyph-name="uni201C" unicode="&#x201C;" d="M330 652L330 799L180 799L269 560L289 560L289 652L330 652M158 652L158 799L9 799L98 560L118 560L118 652L158 652Z"  horiz-adv-x="364" vert-adv-y="1000"  />

      
      <glyph glyph-name="uni201D" unicode="&#x201D;" d="M350 799L200 799L200 652L240 652L241 560L260 560L350 799M178 799L29 799L29 652L69 652L69 560L89 560L178 799Z"  horiz-adv-x="364" vert-adv-y="1000"  />

      
      <glyph glyph-name="uni2018" unicode="&#x2018;" d="M158 652L158 799L9 799L98 560L118 560L118 652L158 652Z"  horiz-adv-x="195" vert-adv-y="1000"  />

      
      <glyph glyph-name="uni2019" unicode="&#x2019;" d="M178 799L29 799L29 652L69 652L69 560L89 560L178 799Z"  horiz-adv-x="187" vert-adv-y="1000"  />

      
      <glyph glyph-name="unif7" unicode="&#xf7;" d="M285 521L285 668L133 668L133 521L285 521M399 479L70 479L15 332L345 332L399 479M285 139L285 286L133 286L133 139L285 139Z"  horiz-adv-x="416" vert-adv-y="1000"  />

      
      <glyph glyph-name="uniF8FF" unicode="&#xF8FF;" d="M1449 690L1449 721L1443 721L1434 696L1424 721L1418 721L1418 690L1421 690L1421 717L1422 717L1432 690L1435 690L1445 717L1445 690L1449 690M1414 718L1414 721L1391 721L1391 718L1400 718L1400 690L1404 690L1404 718L1414 718M1377 713Q1363 730 1345 727Q1327 724 1319 716Q1309 725 1295.50 727Q1282 729 1268 720Q1258 713 1255.50 701Q1253 689 1258 680Q1247 680 1212.50 679Q1178 678 1140 678Q1122 678 1100.50 677Q1079 676 1059 675Q987 726 884.50 752.50Q782 779 657 779Q480 779 352 725Q224 671 162 576Q159 574 156.50 572Q154 570 152 568Q147 570 144 576Q141 582 139 589Q142 591 146 597.50Q150 604 151.50 612.50Q153 621 151 629.50Q149 638 139 643Q128 650 114.50 649.50Q101 649 90 641Q77 651 61.50 649.50Q46 648 38 641Q27 633 23.50 614.50Q20 596 38 577Q47 568 58 563Q69 558 79.50 555.50Q90 553 99 553Q108 553 114 554Q104 559 99 569Q107 564 118 559Q129 554 136 552Q121 539 106 518.50Q91 498 79.50 472.50Q68 447 61 417.50Q54 388 54 357Q54 295 74 246Q94 197 127 159.50Q160 122 202 95.50Q244 69 289 52L289 114Q360 72 453 51Q546 30 657 30Q817 30 940 74Q945 65 945 55Q945 46 943 39Q940 26 932.50 14.50Q925 3 915-3Q909-8 912-15Q916-23 923-21Q955-14 977 2Q999 18 1012.50 38Q1026 58 1031 79Q1036 100 1035 118Q1118 169 1160.50 241.50Q1203 314 1203 405L1203 409L1224 409L1224 609L1260 609L1260 624Q1277 629 1293 635.50Q1309 642 1314 650Q1313 645 1308 638.50Q1303 632 1299 630Q1322 631 1337 634.50Q1352 638 1367 652Q1379 662 1383.50 680.50Q1388 699 1377 713M1366 690Q1366 679 1357.50 670Q1349 661 1341.50 657Q1334 653 1333 652Q1345 662 1343 673Q1336 673 1331 679Q1326 685 1327 693Q1327 701 1333.50 705.50Q1340 710 1345 710Q1350 710 1357.50 706Q1365 702 1366 690M1315 690Q1315 679 1306.50 670.50Q1298 662 1290 658Q1282 654 1281 653Q1294 661 1292 673Q1285 674 1280 679.50Q1275 685 1275 694Q1276 702 1282 706.50Q1288 711 1293 711Q1298 711 1306.50 707Q1315 703 1315 690M1274 664Q1272 659 1269 655.50Q1266 652 1260 647L1260 677Q1265 668 1274 664M1144 592Q1142 595 1139.50 598.50Q1137 602 1135 605L1144 606L1144 592M1239 629L1203 629L1203 427L1164 428L1164 629L1128 629L1128 659L1239 659L1239 629M1110 627L1071 625L1067 514L1107 517L1107 483L1067 481L1067 424L1031 422L1031 655L1110 658L1110 627M1021 421L984 418L975 447L915 442L909 409L872 403L915 646L967 650L1021 421M871 496L858 437L843 452Q863 470 871 496M862 402L822 395L783 431L784 388L749 381L749 634Q749 634 766 635Q783 636 803.50 629.50Q824 623 842 605Q860 587 862 550Q863 521 851 497.50Q839 474 828 463Q817 452 815 451L862 402M726 430Q698 431 678.50 449Q659 467 660 494Q661 524 679 544.50Q697 565 726 574L726 430M732 378Q724 377 703.50 379.50Q683 382 661 393Q639 404 621.50 427Q604 450 603 490Q602 534 621 562Q640 590 663.50 605.50Q687 621 707 627Q727 633 727 633L727 596Q727 596 713.50 591.50Q700 587 684 575.50Q668 564 654.50 544.50Q641 525 642 495Q643 462 657.50 445Q672 428 688.50 420.50Q705 413 718.50 412.50Q732 412 732 412L732 378M1185 405Q1185 318 1143 249Q1101 180 1020 132Q1015 129 1015 122Q1017 110 1014.50 94.50Q1012 79 1004.50 63.50Q997 48 984 34Q971 20 952 10Q957 20 962 35Q968 67 953 90Q948 97 941 94Q819 49 657 49Q545 49 451.50 71Q358 93 289 136L289 153Q266 162 240 180Q214 198 192.50 223Q171 248 157 280.50Q143 313 143 352Q143 382 152 412Q161 442 177.50 467Q194 492 218.50 510Q243 528 274 534L274 632Q258 629 242 622.50Q226 616 211 608Q213 610 215 612Q217 614 219 616Q288 686 401 723Q514 760 657 760Q770 760 864 738Q958 716 1027 673Q1019 672 1014 672Q1009 672 1009 672L1009 562L983 670L898 665L883 572Q858 668 737 654Q693 649 656 625.50Q619 602 602 566L602 618L459 566L439 505L409 553L347 532L347 458Q338 483 320.50 499.50Q303 516 276 516Q249 516 231 498Q213 480 202.50 455Q192 430 188 403Q184 376 185 359Q186 336 191.50 309.50Q197 283 208 260.50Q219 238 236 223Q253 208 277 208Q300 208 318 227.50Q336 247 349 274L348 236L424 267L424 356L442 320L459 359L459 280L603 327L603 414Q612 398 628 386Q644 374 663 366.50Q682 359 703 356.50Q724 354 744 358Q757 360 772.50 363Q788 366 797 368Q806 370 807 370L807 383L819 373Q842 378 875.50 383.50Q909 389 929 391L937 422L962 425L973 394L1087 404L1087 460L1127 463L1127 536L1090 534L1090 603L1111 604Q1120 593 1128.50 581.50Q1137 570 1144 558L1144 409L1184 409Q1184 407 1184.50 406.50Q1185 406 1185 405M581 338L545 326L545 574L581 586L581 338M515 318L479 306L480 469L442 378L403 439L403 278L367 265L367 517L399 529L440 456L476 551L515 565L515 318M133 614Q134 605 129 599.50Q124 594 116 593Q114 581 127 573Q126 574 118.50 578Q111 582 102.50 590.50Q94 599 94 610Q95 623 102.50 627Q110 631 115 631Q120 631 126 626.50Q132 622 133 614M82 613Q83 605 78 599Q73 593 65 592Q63 582 75 572Q74 573 66.50 577Q59 581 51 590Q43 599 43 610Q43 622 50.50 626Q58 630 63 630Q69 630 75 625.50Q81 621 82 613M348 354Q348 334 342.50 312.50Q337 291 327 272Q317 253 304.50 241Q292 229 277 229Q259 229 245 243Q231 257 222 277Q213 297 208 320Q203 343 202 360Q202 375 205.50 398Q209 421 217.50 442.50Q226 464 240.50 480Q255 496 276 496Q297 496 311 481Q325 466 333.50 444Q342 422 345 397.50Q348 373 348 354M270 85Q268 86 249.50 94.50Q231 103 201.50 123Q172 143 143.50 173.50Q115 204 94.50 248.50Q74 293 74 350Q73 408 92 452Q111 496 137 524.50Q163 553 190.50 571Q218 589 236 596.50Q254 604 255 604L255 550Q254 550 241.50 545Q229 540 209.50 526.50Q190 513 171 491Q152 469 137.50 434Q123 399 122 352Q121 311 134.50 275.50Q148 240 169.50 212.50Q191 185 217.50 166Q244 147 270 138L270 85M969 475L943 598L921 471L969 475M829 544Q828 563 816 573.50Q804 584 794.50 587Q785 590 783 590L783 474Q785 475 795.50 483.50Q806 492 818 508.50Q830 525 829 544M311 365Q311 405 302 433.50Q293 462 275 462Q266 462 259 451.50Q252 441 247.50 426Q243 411 240.50 394Q238 377 238 363Q238 352 240.50 336Q243 320 248 305Q253 290 260 279.50Q267 269 276 269Q293 270 302 297Q311 324 311 365M951 489L940 488L945 516L951 489M800 517L800 558Q810 553 809.50 538.50Q809 524 800 517M289 364Q289 336 285.50 317Q282 298 275 298Q272 298 269.50 305Q267 312 264.50 322.50Q262 333 261 344Q260 355 260 363Q260 373 261 385Q262 397 264 407.50Q266 418 268.50 425Q271 432 275 432Q282 432 285.50 412.50Q289 393 289 364Z"  horiz-adv-x="1495" vert-adv-y="1000"  />

      
      <glyph glyph-name="uni23" unicode="&#x23;" d="M538 263L415 263L415 361L483 361L538 508L415 508L415 668L309 604L309 508L236 508L236 668L130 604L130 508L70 508L15 361L130 361L130 263L70 263L15 116L130 116L130 1L236 1L236 116L309 116L309 1L415 1L415 116L483 116L538 263M309 263L236 263L236 361L309 361L309 263Z"  horiz-adv-x="551" vert-adv-y="1000"  />

      
      <glyph glyph-name="uni21" unicode="&#x21;" d="M291 799L40 799L110 237L221 237L291 799M261 1L261 148L70 148L70 1L261 1Z"  horiz-adv-x="325" vert-adv-y="1000"  />

      
      <glyph glyph-name="uni22" unicode="&#x22;" d="M327 799L192 799L212 560L240 560L327 799M153 799L19 799L105 560L133 560L153 799Z"  horiz-adv-x="344" vert-adv-y="1000"  />

      
      <glyph glyph-name="uni0410" unicode="&#x0410;" d="M537 0L398 798L117 798L63 651L117 651L0 0L171 0L196 147L340 147L363 0L537 0M328 236L206 236L262 585L274 585L328 236Z"  horiz-adv-x="539" vert-adv-y="1000"  />

      
      <glyph glyph-name="uni0411" unicode="&#x0411;" d="M340 147L217 147L217 314L340 314L340 147M384 652L438 799L56 799L56 798L55 798L0 651L51 651L51 0L396 0Q440 0 467.50 29Q495 58 495 100L495 363Q495 411 467.50 436Q440 461 399 461L212 461L213 652L384 652Z"  horiz-adv-x="538" vert-adv-y="1000"  />

      
      <glyph glyph-name="uni0412" unicode="&#x0412;" d="M501 100L501 349L434 406Q446 412 457.50 420.50Q469 429 478.50 441.50Q488 454 494 472.50Q500 491 500 516L500 700Q500 748 472.50 773Q445 798 404 798L60 798L5 651L56 651L56 0L401 0Q445 0 473 29Q501 58 501 100M338 461L217 461L217 651L338 651L338 461M345 147L222 147L222 314L345 314L345 147Z"  horiz-adv-x="538" vert-adv-y="1000"  />

      
      <glyph glyph-name="uni0413" unicode="&#x0413;" d="M442 799L60 799L5 652L56 652L57-118L217 41L217 652L388 652L442 799Z"  horiz-adv-x="444" vert-adv-y="1000"  />

      
      <glyph glyph-name="uni0414" unicode="&#x0414;" d="M11 148L11-72L159-129L159 0L433 0L433-129L581-72L581 148L520 148L425 798L144 798L90 651L144 651L71 148L11 148M238 147L289 585L301 585L350 147L238 147Z"  horiz-adv-x="594" vert-adv-y="1000"  />

      
      <glyph glyph-name="uni0415" unicode="&#x0415;" d="M442 147L217 147L217 331L348 331L402 478L217 478L217 651L388 651L442 798L60 798L5 651L56 651L56 0L388 0L442 147Z"  horiz-adv-x="441" vert-adv-y="1000"  />

      
      <glyph glyph-name="uni0416" unicode="&#x0416;" d="M474 798L313 798L313 492L201 798L11 798L173 399L11 0L201 0L313 306L313 0L474 0L474 306L586 0L776 0L614 399L776 798L586 798L474 492L474 798Z"  horiz-adv-x="788" vert-adv-y="1000"  />

      
      <glyph glyph-name="uni0417" unicode="&#x0417;" d="M380 101L380 367L313 424Q325 430 336.50 438.50Q348 447 357.50 459.50Q367 472 373 490.50Q379 509 379 534L379 701Q379 749 351 774Q323 799 283 799L92 799L16 652L216 652L216 479L94 479L48 332L224 332L224 148L89 148L14 1L280 1Q323 1 351.50 30Q380 59 380 101Z"  horiz-adv-x="417" vert-adv-y="1000"  />

      
      <glyph glyph-name="uni0418" unicode="&#x0418;" d="M191 0L322 367L322 0L484 0L484 798L332 798L201 414L201 798L40 798L40 0L191 0Z"  horiz-adv-x="521" vert-adv-y="1000"  />

      
      <glyph glyph-name="uni0419" unicode="&#x0419;" d="M189 0L320 367L320 0L482 0L482 798L330 798L199 414L199 798L38 798L38 0L189 0M231 951L130 951L130 894Q130 881 135 869.50Q140 858 148.50 849.50Q157 841 168 836.50Q179 832 192 832L332 832Q345 832 356.50 836.50Q368 841 376 849.50Q384 858 389 869.50Q394 881 394 894L394 951L297 951L297 923L231 923L231 951Z"  horiz-adv-x="519" vert-adv-y="1000"  />

      
      <glyph glyph-name="uni041A" unicode="&#x041A;" d="M524 0L342 399L524 798L334 798L202 492L202 798L41 798L41 0L202 0L202 306L334 0L524 0Z"  horiz-adv-x="537" vert-adv-y="1000"  />

      
      <glyph glyph-name="uni041B" unicode="&#x041B;" d="M363 0L537 0L398 798L117 798L63 651L117 651L0 0L171 0L262 585L274 585L363 0Z"  horiz-adv-x="539" vert-adv-y="1000"  />

      
      <glyph glyph-name="uni041C" unicode="&#x041C;" d="M613 0L613 798L385 798L322 477L251 798L41 798L40 0L201 0L201 429L326-67L452 438L452 0L613 0Z"  horiz-adv-x="658" vert-adv-y="1000"  />

      
      <glyph glyph-name="uni041D" unicode="&#x041D;" d="M535 0L535 798L374 798L374 478L252 478L252 798L91 798L91 478L65 478L18 331L91 331L91 0L252 0L252 331L374 331L374 0L535 0Z"  horiz-adv-x="566" vert-adv-y="1000"  />

      
      <glyph glyph-name="uni041E" unicode="&#x041E;" d="M481 100L481 698Q481 719 473 737Q465 755 451.50 768.50Q438 782 420 790Q402 798 381 798L140 798Q119 798 101 790Q83 782 69.50 768.50Q56 755 48 737Q40 719 40 698L40 100Q40 79 48 60.50Q56 42 69.50 28.50Q83 15 101 7.50Q119 0 140 0L381 0Q402 0 420 7.50Q438 15 451.50 28.50Q465 42 473 60.50Q481 79 481 100M325 147L202 147L202 651L325 651L325 147Z"  horiz-adv-x="510" vert-adv-y="1000"  />

      
      <glyph glyph-name="uni041F" unicode="&#x041F;" d="M535 0L535 798L65 798L18 651L91 651L91 0L252 0L252 651L374 651L374 0L535 0Z"  horiz-adv-x="566" vert-adv-y="1000"  />

      
      <glyph glyph-name="uni0420" unicode="&#x0420;" d="M492 325L492 721Q492 759 466 779.50Q440 800 398 800L48 800L-11 652L44 652L44-129L205 30L205 308Q222 298 236 285.50Q250 273 264 259L393 258Q416 258 427 259Q436 260 447.50 264.50Q459 269 469 277.50Q479 286 485.50 298Q492 310 492 325M330 652L329 439L207 439L207 651L330 652Z"  horiz-adv-x="528" vert-adv-y="1000"  />

      
      <glyph glyph-name="uni0421" unicode="&#x0421;" d="M400 798Q400 798 371.50 798.50Q343 799 301.50 799.50Q260 800 213 799.50Q166 799 129 798Q115 798 99 791Q83 784 69 770.50Q55 757 45.50 737.50Q36 718 36 692L37 101Q37 47 65.50 23.50Q94 0 144 0L315-1L391 147L202 147L202 651L325 651L400 798Z"  horiz-adv-x="397" vert-adv-y="1000"  />

      
      <glyph glyph-name="uni0422" unicode="&#x0422;" d="M482 798L60 798L5 651L160 651L160 0L321 0L321 651L427 651L482 798Z"  horiz-adv-x="481" vert-adv-y="1000"  />

      
      <glyph glyph-name="uni0423" unicode="&#x0423;" d="M192 798L11 798L171 265L223 265L162 0L338 0L510 798L337 798L273 497L192 798Z"  horiz-adv-x="520" vert-adv-y="1000"  />

      
      <glyph glyph-name="uni0424" unicode="&#x0424;" d="M324 651L324 439L202 439L202 652L324 651M610 652L610 439L487 439L487 651L610 652M488 306Q503 297 516 286Q530 273 544 259L707 259Q716 260 727.50 264.50Q739 269 749 277.50Q759 286 765.50 298Q772 310 772 325L772 721Q772 759 746 779.50Q720 800 678 800L134 800Q92 800 66 779.50Q40 759 40 721Q41 367 40 325Q40 310 46.50 298Q53 286 63 277.50Q73 269 84.50 264.50Q96 260 105 259L267 259Q281 273 296 286Q309 297 324 306L324-129L485 30L485 100L488 99L488 306Z"  horiz-adv-x="805" vert-adv-y="1000"  />

      
      <glyph glyph-name="uni0425" unicode="&#x0425;" d="M543 0L371 399L543 798L353 798L276 620L200 798L10 798L181 399L10 0L200 0L276 178L353 0L543 0Z"  horiz-adv-x="550" vert-adv-y="1000"  />

      
      <glyph glyph-name="uni0426" unicode="&#x0426;" d="M396-129L544-72L544 148L484 148L484 798L323 798L323 147L201 147L201 798L40 798L40 0L396 0L396-129Z"  horiz-adv-x="550" vert-adv-y="1000"  />

      
      <glyph glyph-name="uni0427" unicode="&#x0427;" d="M40 409Q40 373 47 347.50Q54 322 73 309.50Q92 297 112.50 294.50Q133 292 160 292L323 292L323 0L484 0L484 798L323 798L323 439L201 439L201 798L40 798L40 409Z"  horiz-adv-x="525" vert-adv-y="1000"  />

      
      <glyph glyph-name="uni0428" unicode="&#x0428;" d="M767 0L767 798L606 798L606 147L484 147L484 798L323 798L323 147L201 147L201 798L40 798L40 0L767 0Z"  horiz-adv-x="798" vert-adv-y="1000"  />

      
      <glyph glyph-name="uni0429" unicode="&#x0429;" d="M678-129L825-73L825 148L766 148L766 798L605 798L605 147L483 147L483 798L322 798L322 147L200 147L200 798L39 798L39 0L678 0L678-129Z"  horiz-adv-x="830" vert-adv-y="1000"  />

      
      <glyph glyph-name="uni042A" unicode="&#x042A;" d="M399 147L276 147L276 314L399 314L399 147M60 799L5 651L110 651L110 0L455 0Q499 0 526.50 29Q554 58 554 100L554 363Q554 411 526.50 436Q499 461 458 461L271 461L271 799L60 799Z"  horiz-adv-x="597" vert-adv-y="1000"  />

      
      <glyph glyph-name="uni042B" unicode="&#x042B;" d="M330 147L207 147L207 314L330 314L330 147M203 799L41 799L41 0L386 0Q430 0 457.50 29Q485 58 485 100L485 363Q485 411 457.50 436Q430 461 389 461L202 461L203 799M689 0L689 798L528 798L528 0L689 0Z"  horiz-adv-x="735" vert-adv-y="1000"  />

      
      <glyph glyph-name="uni042C" unicode="&#x042C;" d="M327 147L204 147L204 314L327 314L327 147M200 799L38 799L38 0L383 0Q427 0 454.50 29Q482 58 482 100L482 363Q482 411 454.50 436Q427 461 386 461L199 461L200 799Z"  horiz-adv-x="525" vert-adv-y="1000"  />

      
      <glyph glyph-name="uni042D" unicode="&#x042D;" d="M380 101L379 701Q379 749 351 774Q323 799 283 799L92 799L16 652L216 652L216 479L94 479L48 332L224 332L224 148L89 148L14 1L280 1Q323 1 351.50 30Q380 59 380 101Z"  horiz-adv-x="417" vert-adv-y="1000"  />

      
      <glyph glyph-name="uni042E" unicode="&#x042E;" d="M625 147L502 147L502 651L625 651L625 147M340 100Q340 79 348 60.50Q356 42 369.50 28.50Q383 15 401 7.50Q419 0 440 0L681 0Q702 0 720 7.50Q738 15 751.50 28.50Q765 42 773 60.50Q781 79 781 100L781 698Q781 719 773 737Q765 755 751.50 768.50Q738 782 720 790Q702 798 681 798L440 798Q419 798 401 790Q383 782 369.50 768.50Q356 755 348 737Q340 719 340 698L340 478L252 478L252 798L91 798L91 478L65 478L18 331L91 331L91 0L252 0L252 331L340 331L340 100Z"  horiz-adv-x="813" vert-adv-y="1000"  />

      
      <glyph glyph-name="uni042F" unicode="&#x042F;" d="M206 0L305 285L334 285L334 0L496 0L496 798L146 798Q106 798 77 773Q48 748 48 700L48 409Q48 384 57.50 364.50Q67 345 81 331.50Q95 318 112 310Q129 302 145 300L40 0L206 0M211 651L335 651L335 441L211 441L211 651Z"  horiz-adv-x="535" vert-adv-y="1000"  />

      
      <glyph glyph-name="uni0401" unicode="&#x0401;" d="M442 147L217 147L217 331L348 331L402 478L217 478L217 651L388 651L442 798L60 798L5 651L56 651L56 0L388 0L442 147M375 842L375 950L264 950L264 842L375 842M210 842L210 950L99 950L99 842L210 842Z"  horiz-adv-x="441" vert-adv-y="1000"  />

      
      <glyph glyph-name="uni0404" unicode="&#x0404;" d="M326 331L380 478L202 478L202 651L325 651L400 798Q166 799 129 798Q115 798 99 791Q83 784 69 770.50Q55 757 45.50 737.50Q36 718 36 692L37 101Q37 47 65.50 23.50Q94 0 144 0L322-1L398 147L202 147L202 331L326 331Z"  horiz-adv-x="397" vert-adv-y="1000"  />

      
      <glyph glyph-name="uni0406" unicode="&#x0406;" d="M211 0L211 798L50 798L50 0L211 0Z"  horiz-adv-x="256" vert-adv-y="1000"  />

      
      <glyph glyph-name="uni0407" unicode="&#x0407;" d="M211 0L211 798L50 798L50 0L211 0M267 842L267 950L156 950L156 842L267 842M102 842L102 950L-9 950L-9 842L102 842Z"  horiz-adv-x="256" vert-adv-y="1000"  />

      
      <glyph glyph-name="uni040E" unicode="&#x040E;" d="M323 148L159 148L84 1L384 1Q427 1 455.50 30Q484 59 484 101L484 798L323 798L323 478L201 478L201 798L40 798L40 438Q40 403 48 382Q56 361 70 349.50Q84 338 104.50 334.50Q125 331 150 331L323 331L323 148M236 951L135 951L135 894Q135 881 140 869.50Q145 858 153.50 849.50Q162 841 173 836.50Q184 832 197 832L337 832Q350 832 361.50 836.50Q373 841 381 849.50Q389 858 394 869.50Q399 881 399 894L399 951L302 951L302 923L236 923L236 951Z"  horiz-adv-x="515" vert-adv-y="1000"  />

      
      <glyph glyph-name="uni0490" unicode="&#x0490;" d="M442 799L60 799L5 652L56 652L57-118L217 41L217 652L388 652L442 799Z"  horiz-adv-x="444" vert-adv-y="1000"  />

      
      <glyph glyph-name="uni0430" unicode="&#x0430;" d="M414 0L414 519Q414 536 406.50 548.50Q399 561 388 569Q377 577 365.50 581Q354 585 346 585L116 586L46 444L283 444L281 361Q281 361 261.50 361.50Q242 362 215 362Q188 362 158 362Q129 362 109 362Q86 361 67 347Q48 333 47 309L43 63Q43 47 49 35Q55 23 65 15.50Q75 8 87.50 4Q100 0 113 0Q144 0 173 0Q203 0 218 0Q233 0 235 0L285 50L285 0L414 0M280 148L179 148L179 236L280 236L280 148Z"  horiz-adv-x="453" vert-adv-y="1000"  />

      
      <glyph glyph-name="uni0431" unicode="&#x0431;" d="M185 438L286 438L286 142L185 142L185 438M41 90Q41 76 47 60Q53 44 63.50 30.50Q74 17 89.50 8Q105-1 125-1L345-1Q365-1 380.50 8Q396 17 406.50 30.50Q417 44 423 60Q429 76 429 90L429 515Q429 530 422.50 542.50Q416 555 406.50 564.50Q397 574 385.50 579Q374 584 364 584L258 584L179 527L178 596Q178 614 184 624.50Q190 635 207 640Q224 645 255.50 646.50Q287 648 337 648L268 783L174 783Q147 783 123 773Q99 763 80.50 746Q62 729 51.50 708Q41 687 41 664L41 90Z"  horiz-adv-x="468" vert-adv-y="1000"  />

      
      <glyph glyph-name="uni0432" unicode="&#x0432;" d="M177 236L278 236L278 148L177 148L177 236M344 0L344 1Q372 4 391 22Q414 43 414 73L414 256L359 298Q368 302 377.50 308Q387 314 395 323.50Q403 333 408 346.50Q413 360 413 378L413 513Q413 548 391 567Q370 583 341 586L43 586L43 0L344 0M280 362L175 362L174 444L280 444L280 362Z"  horiz-adv-x="453" vert-adv-y="1000"  />

      
      <glyph glyph-name="uni0433" unicode="&#x0433;" d="M355 586L89 586Q66 586 55.50 569Q45 552 45 531L45 0L182 0L181 440L284 440L355 586Z"  horiz-adv-x="361" vert-adv-y="1000"  />

      
      <glyph glyph-name="uni0434" unicode="&#x0434;" d="M285 142L184 142L184 438L285 438L285 142M335-1Q365-1 380.50 8Q396 17 406.50 30.50Q417 44 423 60Q428 72 429 90L429 664Q429 687 418.50 708Q408 729 389.50 746Q371 763 347 773Q323 783 296 783L132 783L203 648Q246 645 262.50 640Q279 635 285 624.50Q291 614 291 596L291 527L212 584L106 584Q96 584 84.50 579Q73 574 63.50 564.50Q54 555 47.50 542.50Q41 530 41 515L41 90Q41 76 47 60Q53 44 63.50 30.50Q74 17 89.50 8Q105-1 125-1L335-1Z"  horiz-adv-x="468" vert-adv-y="1000"  />

      
      <glyph glyph-name="uni0435" unicode="&#x0435;" d="M106 586Q67 586 49 565Q31 544 31 520L31 68Q31 55 35 43Q39 31 48.50 21.50Q58 12 73.50 6Q89 0 112 0L317 0L378 146L163 146L163 236L406 236L406 520Q406 544 388 565Q370 586 331 586L106 586M270 364L166 364L166 442L270 442L270 364Z"  horiz-adv-x="446" vert-adv-y="1000"  />

      
      <glyph glyph-name="uni0436" unicode="&#x0436;" d="M256 589L256 434L138 589L0 589L144 385Q122 386 102 382Q82 378 66.50 370Q51 362 42 349Q33 336 33 320L33 0L174 0L174 274Q178 279 185 280Q192 281 199 279L256 279L256 0L400 0L400 279L457 279Q464 281 471 280Q478 279 482 274L482 0L623 0L623 320Q623 336 614 349Q605 362 589.50 370Q574 378 554 382Q534 386 512 385L656 589L518 589L404 426L405 589L256 589Z"  horiz-adv-x="675" vert-adv-y="1000"  />

      
      <glyph glyph-name="uni0437" unicode="&#x0437;" d="M344 74L344 269L287 310Q297 315 307 321Q317 327 325 336.50Q333 346 338 359.50Q343 373 343 391L343 513Q343 548 319 566.50Q295 585 261 585L97 585L40 443L209 441L209 364L126 363L74 236L212 235L212 148L89 149L30 1L258 1Q295 1 319.50 22Q344 43 344 74Z"  horiz-adv-x="380" vert-adv-y="1000"  />

      
      <glyph glyph-name="uni0438" unicode="&#x0438;" d="M425 0L425 610L278 533L279 215L178 155L175 603L45 532L45 74Q45 48 54.50 30.50Q64 13 78.50 3.50Q93-6 110.50-7Q128-8 143 0Q162 9 186.50 24Q211 39 233.50 53.50Q256 68 271.50 78.50Q287 89 287 89L287 0L425 0Z"  horiz-adv-x="468" vert-adv-y="1000"  />

      
      <glyph glyph-name="uni0439" unicode="&#x0439;" d="M425 0L425 610L279 533L279 215L178 155L177 603L45 532L45 74Q45 48 54.50 30.50Q64 13 78.50 3.50Q93-6 110.50-7Q128-8 143 0Q162 9 186.50 24Q211 39 233.50 53.50Q256 68 271.50 78.50Q287 89 287 89L287 0L425 0M221 730L144 730L144 683Q144 671 147.50 662Q151 653 157.50 646.50Q164 640 173.50 636.50Q183 633 197 633L292 633Q305 633 315 636.50Q325 640 331 646.50Q337 653 340.50 662Q344 671 344 682L344 730L271 730L271 709L221 709L221 730Z"  horiz-adv-x="468" vert-adv-y="1000"  />

      
      <glyph glyph-name="uni043A" unicode="&#x043A;" d="M465 589L327 589L193 396L194 589L45 589L45 0L187 0L188 195L266 280Q273 282 280 285Q287 288 291 283L291 0L432 0L432 320Q432 336 423 349Q414 362 398.50 370Q383 378 363 382Q343 386 321 385L465 589Z"  horiz-adv-x="487" vert-adv-y="1000"  />

      
      <glyph glyph-name="uni043B" unicode="&#x043B;" d="M234 598L154 598L-20 9L126 9L200 276L280 11L425 11L234 598Z"  horiz-adv-x="412" vert-adv-y="1000"  />

      
      <glyph glyph-name="uni043C" unicode="&#x043C;" d="M539-1L539 589L339 589L283 352L221 589L36 589L35-1L177-1L177 316L287-50L398 323L398-1L539-1Z"  horiz-adv-x="579" vert-adv-y="1000"  />

      
      <glyph glyph-name="uni043D" unicode="&#x043D;" d="M284 236L284 0L424 0L424 590L284 589L284 364L179 364L179 590L34 590L34 0L179 0L179 236L284 236Z"  horiz-adv-x="466" vert-adv-y="1000"  />

      
      <glyph glyph-name="uni043E" unicode="&#x043E;" d="M401 528Q401 544 394.50 555Q388 566 379 573Q370 580 359.50 583Q349 586 341 586L80 586Q61 586 48.50 569Q36 552 34 537L34 72Q34 57 36 44Q38 31 44 21.50Q50 12 60.50 6Q71 0 88 0L348 0Q369 0 385 13.50Q401 27 401 47L401 528M269 146L171 147L172 442L269 442L269 146Z"  horiz-adv-x="442" vert-adv-y="1000"  />

      
      <glyph glyph-name="uni043F" unicode="&#x043F;" d="M424 508Q424 534 414.50 551.50Q405 569 390 578Q375 587 358 588Q341 589 326 589L34 589L34 0L180 0L180 438L284 438L284 0L424 0L424 508Z"  horiz-adv-x="466" vert-adv-y="1000"  />

      
      <glyph glyph-name="uni0440" unicode="&#x0440;" d="M408 499Q408 513 404 528.50Q400 544 391 557Q382 570 368.50 579Q355 588 335 588L91 588Q84 588 75.50 584Q67 580 59.50 572Q52 564 46.50 550.50Q41 537 41 518L41-199L169-83L168 57L247 0L343 0Q353 0 364.50 5Q376 10 385.50 19.50Q395 29 401 41.50Q407 54 407 69L408 499M275 147L174 147L174 442L275 442L275 147Z"  horiz-adv-x="431" vert-adv-y="1000"  />

      
      <glyph glyph-name="uni0441" unicode="&#x0441;" d="M355 586L89 586Q66 586 55.50 569Q45 552 45 531L45 36Q43 20 54.50 11Q66 2 83 0L283 0L347 146L182 146L180 440L284 440L355 586Z"  horiz-adv-x="361" vert-adv-y="1000"  />

      
      <glyph glyph-name="uni0442" unicode="&#x0442;" d="M642 0L642 520Q642 552 627 569Q612 586 585 585Q568 585 545 585Q522 585 508 585Q494 585 492 585L403 504L404 534Q405 561 384 574Q363 587 336 586Q319 586 299 585.50Q279 585 267 585Q256 585 254 585L168 502L168 612L32 517L32 0L169 0L168 362L272 454L272 0L407 0L406 362L510 454L510 0L642 0Z"  horiz-adv-x="680" vert-adv-y="1000"  />

      
      <glyph glyph-name="uni0443" unicode="&#x0443;" d="M420-80L420 605L277 530L277 147L185 147L185 605L42 533Q42 531 42.50 500Q43 469 43 415Q43 361 43.50 300.50Q44 240 44 178Q44 116 44 69Q44 54 50 41.50Q56 29 65.50 19.50Q75 10 86 5Q97 0 107 0L203 0L282 57L283-12Q283-30 277-40.50Q271-51 254-56Q237-61 205.50-62.50Q174-64 124-64L193-199L287-199Q314-199 338-189Q362-179 380.50-162Q399-145 409.50-124Q420-103 420-80Z"  horiz-adv-x="458" vert-adv-y="1000"  />

      
      <glyph glyph-name="uni0444" unicode="&#x0444;" d="M276 442L276 147L175 147L175 442L276 442M520 147L419 147L419 442L520 442L520 147M492 0L588 0Q598 0 609.50 5Q621 10 630.50 19.50Q640 29 646 41.50Q652 54 652 69L653 499Q653 513 649 528.50Q645 544 636 557Q627 570 613.50 579Q600 588 580 588L419 588L419 653L281 585L114 585Q94 585 80.50 576Q67 567 58 553.50Q49 540 45 524Q41 508 41 494Q42 391 43.50 289Q45 187 44 69Q44 54 50 41.50Q56 29 65.50 19.50Q75 10 86 5Q97 0 107 0L204 0L282 57L281-195L418-66L418 53L492 0Z"  horiz-adv-x="680" vert-adv-y="1000"  />

      
      <glyph glyph-name="uni0445" unicode="&#x0445;" d="M512 0L343 291L508 585L357 585L260 424L158 606L34 538L166 308L-3 0L167 0L255 174L352 0L512 0Z"  horiz-adv-x="515" vert-adv-y="1000"  />

      
      <glyph glyph-name="uni0446" unicode="&#x0446;" d="M344-129L480-77L480 155L425 155L425 610L278 533L278 155L175 155L175 603L45 532L45 81Q45 55 54.50 37.50Q64 20 78.50 10.50Q93 1 110.50 0Q128-1 143 0L344 0L344-129Z"  horiz-adv-x="485" vert-adv-y="1000"  />

      
      <glyph glyph-name="uni0447" unicode="&#x0447;" d="M425 0L425 610L279 533L279 331L178 331L177 603L45 532L45 285Q46 259 55 241Q64 223 83 214Q102 205 143 204L287 204L287 0L425 0Z"  horiz-adv-x="468" vert-adv-y="1000"  />

      
      <glyph glyph-name="uni0448" unicode="&#x0448;" d="M675 0L675 610L528 533L528 155L425 155L425 610L278 533L278 155L175 155L175 603L45 532L45 81Q45 55 54.50 37.50Q64 20 78.50 10.50Q93 1 110.50 0Q128-1 143 0L675 0Z"  horiz-adv-x="715" vert-adv-y="1000"  />

      
      <glyph glyph-name="uni0449" unicode="&#x0449;" d="M594-129L730-77L730 155L675 155L675 610L528 533L528 155L425 155L425 610L278 533L278 155L175 155L175 603L45 532L45 81Q45 55 54.50 37.50Q64 20 78.50 10.50Q93 1 110.50 0Q128-1 143 0L594 0L594-129Z"  horiz-adv-x="736" vert-adv-y="1000"  />

      
      <glyph glyph-name="uni044A" unicode="&#x044A;" d="M217 236L318 236L318 148L217 148L217 236M51 585L-5 443L83 443L83 0L381 0Q394 0 406.50 4Q419 8 429 15.50Q439 23 445 35Q451 47 451 63L451 309Q450 333 431 347Q412 361 389 362L215 362L215 585L51 585Z"  horiz-adv-x="493" vert-adv-y="1000"  />

      
      <glyph glyph-name="uni044B" unicode="&#x044B;" d="M341 0Q354 0 366.50 4Q379 8 389 15.50Q399 23 405 35Q411 47 411 63L411 309Q410 333 391 347Q372 361 349 362L175 362L175 585L43 585L43 0L341 0M177 236L278 236L278 148L177 148L177 236M580 0L580 585L453 585L453 0L580 0Z"  horiz-adv-x="616" vert-adv-y="1000"  />

      
      <glyph glyph-name="uni044C" unicode="&#x044C;" d="M341 0Q354 0 366.50 4Q379 8 389 15.50Q399 23 405 35Q411 47 411 63L411 309Q410 333 391 347Q372 361 349 362L175 362L175 585L43 585L43 0L341 0M177 236L278 236L278 148L177 148L177 236Z"  horiz-adv-x="453" vert-adv-y="1000"  />

      
      <glyph glyph-name="uni044D" unicode="&#x044D;" d="M40 442L208 442L209 364L126 363L74 236L212 236L212 148L87 147L28 0L263 0Q286 0 301.50 6Q317 12 326.50 21.50Q336 31 340 43Q344 55 344 68L344 520Q344 544 326 565Q308 586 269 586L101 586L40 442M344 74L344 269L287 310Q297 315 307 321Q317 327 325 336.50Q333 346 338 359.50Q343 373 343 391L343 513Q343 548 319 566.50Q295 585 261 585L97 585L40 443L209 441L209 364L126 363L74 236L212 235L212 148L89 149L30 1L258 1Q295 1 319.50 22Q344 43 344 74Z"  horiz-adv-x="380" vert-adv-y="1000"  />

      
      <glyph glyph-name="uni044E" unicode="&#x044E;" d="M489 146L391 147L392 442L489 442L489 146M254 72Q254 57 256 44Q258 31 264 21.50Q270 12 280.50 6Q291 0 308 0L568 0Q589 0 605 13.50Q621 27 621 47L621 528Q621 544 614.50 555Q608 566 599 573Q590 580 579.50 583Q569 586 561 586L300 586Q281 586 268.50 569Q256 552 254 537L254 364L179 364L179 590L34 590L34 0L179 0L179 236L254 236L254 72Z"  horiz-adv-x="656" vert-adv-y="1000"  />

      
      <glyph glyph-name="uni044F" unicode="&#x044F;" d="M277 349L171 349L171 437L277 437L277 349M17 0L168 0L248 223L279 223L279 0L411 0L411 585L108 585Q95 585 82.50 581Q70 577 60 569.50Q50 562 44 550Q38 538 38 522L39 281Q40 252 56.50 238Q73 224 105 223L17 0Z"  horiz-adv-x="453" vert-adv-y="1000"  />

      
      <glyph glyph-name="uni0451" unicode="&#x0451;" d="M106 586Q67 586 49 565Q31 544 31 520L31 68Q31 55 35 43Q39 31 48.50 21.50Q58 12 73.50 6Q89 0 112 0L317 0L378 146L163 146L163 236L406 236L406 520Q406 544 388 565Q370 586 331 586L106 586M270 364L166 364L166 442L270 442L270 364M350 621L350 729L239 729L239 621L350 621M193 621L193 729L82 729L82 621L193 621Z"  horiz-adv-x="445" vert-adv-y="1000"  />

      
      <glyph glyph-name="uni0454" unicode="&#x0454;" d="M354 586L106 586Q67 586 49 565Q31 544 31 520L31 68Q31 55 35 43Q39 31 48.50 21.50Q58 12 73.50 6Q89 0 112 0L267 0L328 146L164 148L163 236L251 236L299 363L166 365L167 442L295 442L354 586Z"  horiz-adv-x="356" vert-adv-y="1000"  />

      
      <glyph glyph-name="uni0456" unicode="&#x0456;" d="M167 675L167 806L44 735L44 607L167 675M167 0L167 564L40 496L40 0L167 0Z"  horiz-adv-x="195" vert-adv-y="1000"  />

      
      <glyph glyph-name="uni0457" unicode="&#x0457;" d="M167 0L167 564L40 565L40 0L167 0M230 621L230 729L119 729L119 621L230 621M73 621L73 729L-38 729L-38 621L73 621Z"  horiz-adv-x="195" vert-adv-y="1000"  />

      
      <glyph glyph-name="uni045E" unicode="&#x045E;" d="M420-80L420 605L277 530L277 147L185 147L185 605L42 533Q42 531 42.50 500Q43 469 43 415Q43 361 43.50 300.50Q44 240 44 178Q44 116 44 69Q44 54 50 41.50Q56 29 65.50 19.50Q75 10 86 5Q97 0 107 0L203 0L282 57L283-12Q283-30 277-40.50Q271-51 254-56Q237-61 205.50-62.50Q174-64 124-64L193-199L287-199Q314-199 338-189Q362-179 380.50-162Q399-145 409.50-124Q420-103 420-80M221 722L144 722L144 679Q144 669 147.50 660Q151 651 157.50 644.50Q164 638 172.50 635Q181 632 191 632L297 632Q307 632 316 635Q325 638 331 644.50Q337 651 340.50 660Q344 669 344 679L344 722L271 722L271 701L221 701L221 722Z"  horiz-adv-x="458" vert-adv-y="1000"  />

      
      <glyph glyph-name="uni0491" unicode="&#x0491;" d="M355 586L89 586Q66 586 55.50 569Q45 552 45 531L45 0L182 0L181 440L284 440L355 586M209 586L355 586L355 657L209 586Z"  horiz-adv-x="361" vert-adv-y="1000"  />

      

  </font>
</defs>
</svg>
