<?xml version="1.0" encoding="UTF-8"?> <svg xmlns="http://www.w3.org/2000/svg" width="56" height="56" viewBox="0 0 56 56" fill="none"><path d="M36.4185 41.7964C34.7854 43.3795 33.0023 43.1295 31.2858 42.3796C29.4694 41.6131 27.8029 41.5797 25.8865 42.3796C23.4868 43.4128 22.2203 43.1129 20.7872 41.7964C12.6548 33.4141 13.8547 20.649 23.0869 20.1824C25.3366 20.2991 26.903 21.4156 28.2195 21.5156C30.186 21.1156 32.0691 19.9658 34.1688 20.1158C36.6851 20.3157 38.5849 21.3156 39.8348 23.1154C34.6354 26.2317 35.8686 33.0808 40.6347 34.9972C39.6848 37.4969 38.4516 39.9799 36.4019 41.813L36.4185 41.7964ZM28.0529 20.0824C27.8029 16.3662 30.8192 13.3 34.2855 13C34.7687 17.2995 30.3859 20.4991 28.0529 20.0824Z" fill="#7E5525"></path></svg> 