<?xml version="1.0" encoding="UTF-8"?> <svg xmlns="http://www.w3.org/2000/svg" width="56" height="56" viewBox="0 0 56 56" fill="none"><g clip-path="url(#clip0_2564_5525)"><path d="M30.7197 43H35.3144C39.5331 43 43 39.5331 43 35.3144V20.6856C43 16.4669 39.5331 13 35.3144 13H30.6269C30.5341 13 30.4366 13.0928 30.4366 13.1856V42.8144C30.4366 42.9072 30.5294 43 30.7197 43ZM36.4375 26.5009C38.1269 26.5009 39.4356 27.9072 39.4356 29.4991C39.4356 31.1884 38.0294 32.4972 36.4375 32.4972C34.7481 32.4972 33.4394 31.1884 33.4394 29.4991C33.3419 27.8144 34.7481 26.5009 36.4375 26.5009ZM27.2481 13H20.6856C16.4669 13 13 16.4669 13 20.6856V35.3144C13 39.5331 16.4669 43 20.6856 43H27.2481C27.3409 43 27.4384 42.9072 27.4384 42.8144V13.1856C27.4384 13.0928 27.3456 13 27.2481 13ZM25.0947 40.5634H20.6856C19.996 40.5645 19.3129 40.4295 18.6756 40.1661C18.0382 39.9027 17.4591 39.5161 16.9715 39.0285C16.4839 38.5409 16.0973 37.9618 15.8339 37.3244C15.5705 36.6871 15.4355 36.004 15.4366 35.3144V20.6856C15.4355 19.996 15.5705 19.3129 15.8339 18.6756C16.0973 18.0382 16.4839 17.4591 16.9715 16.9715C17.4591 16.4839 18.0382 16.0973 18.6756 15.8339C19.3129 15.5705 19.996 15.4355 20.6856 15.4366H25.0019L25.0947 40.5634ZM17.6875 21.9991C17.6875 23.5909 18.9081 24.8116 20.5 24.8116C22.0919 24.8116 23.3125 23.5909 23.3125 21.9991C23.3125 20.4072 22.0919 19.1866 20.5 19.1866C18.9081 19.1866 17.6875 20.4072 17.6875 21.9991Z" fill="#7E5525"></path></g><defs><clipPath id="clip0_2564_5525"><rect width="30" height="30" fill="white" transform="translate(13 13)"></rect></clipPath></defs></svg> 