<svg width="23" height="19" viewBox="0 0 23 19" fill="none" xmlns="http://www.w3.org/2000/svg">
<g filter="url(#filter0_d_2125_4078)">
<path d="M16.3106 5.13672C15.4239 4.72338 14.4639 4.42337 13.4639 4.25003C13.4551 4.24975 13.4464 4.2514 13.4383 4.25485C13.4303 4.25831 13.423 4.26349 13.4172 4.27003C13.2972 4.49004 13.1572 4.77671 13.0639 4.99672C12.0032 4.83671 10.9245 4.83671 9.86377 4.99672C9.77043 4.77004 9.63043 4.49004 9.50376 4.27003C9.49709 4.2567 9.47709 4.25003 9.45709 4.25003C8.45706 4.42337 7.5037 4.72338 6.61035 5.13672C6.60368 5.13672 6.59701 5.14339 6.59034 5.15006C4.77696 7.86346 4.27695 10.5035 4.52362 13.1169C4.52362 13.1303 4.53029 13.1436 4.54362 13.1503C5.74365 14.0303 6.89702 14.5636 8.03705 14.917C8.05705 14.9237 8.07705 14.917 8.08372 14.9037C8.35039 14.537 8.5904 14.1503 8.79707 13.7436C8.81041 13.717 8.79707 13.6903 8.7704 13.6836C8.39039 13.537 8.03038 13.3636 7.67704 13.1636C7.65037 13.1503 7.65037 13.1103 7.67037 13.0903C7.74371 13.0369 7.81704 12.9769 7.89038 12.9236C7.90371 12.9103 7.92371 12.9103 7.93705 12.9169C10.2304 13.9636 12.7038 13.9636 14.9706 12.9169C14.9839 12.9103 15.0039 12.9103 15.0172 12.9236C15.0906 12.9836 15.1639 13.0369 15.2372 13.0969C15.2639 13.1169 15.2639 13.1569 15.2306 13.1703C14.8839 13.3769 14.5172 13.5436 14.1372 13.6903C14.1106 13.697 14.1039 13.7303 14.1106 13.7503C14.3239 14.157 14.5639 14.5436 14.8239 14.9103C14.8439 14.917 14.8639 14.9237 14.8839 14.917C16.0306 14.5636 17.184 14.0303 18.384 13.1503C18.3973 13.1436 18.404 13.1303 18.404 13.1169C18.6973 10.0969 17.9173 7.47679 16.3373 5.15006C16.3306 5.14339 16.3239 5.13672 16.3106 5.13672ZM9.14375 11.5236C8.45706 11.5236 7.88371 10.8902 7.88371 10.1102C7.88371 9.33017 8.44373 8.69682 9.14375 8.69682C9.85043 8.69682 10.4104 9.33684 10.4038 10.1102C10.4038 10.8902 9.84377 11.5236 9.14375 11.5236ZM13.7905 11.5236C13.1039 11.5236 12.5305 10.8902 12.5305 10.1102C12.5305 9.33017 13.0905 8.69682 13.7905 8.69682C14.4972 8.69682 15.0572 9.33684 15.0506 10.1102C15.0506 10.8902 14.4972 11.5236 13.7905 11.5236Z" fill="url(#paint0_linear_2125_4078)"/>
<path d="M16.3106 5.13672C15.4239 4.72338 14.4639 4.42337 13.4639 4.25003C13.4551 4.24975 13.4464 4.2514 13.4383 4.25485C13.4303 4.25831 13.423 4.26349 13.4172 4.27003C13.2972 4.49004 13.1572 4.77671 13.0639 4.99672C12.0032 4.83671 10.9245 4.83671 9.86377 4.99672C9.77043 4.77004 9.63043 4.49004 9.50376 4.27003C9.49709 4.2567 9.47709 4.25003 9.45709 4.25003C8.45706 4.42337 7.5037 4.72338 6.61035 5.13672C6.60368 5.13672 6.59701 5.14339 6.59034 5.15006C4.77696 7.86346 4.27695 10.5035 4.52362 13.1169C4.52362 13.1303 4.53029 13.1436 4.54362 13.1503C5.74365 14.0303 6.89702 14.5636 8.03705 14.917C8.05705 14.9237 8.07705 14.917 8.08372 14.9037C8.35039 14.537 8.5904 14.1503 8.79707 13.7436C8.81041 13.717 8.79707 13.6903 8.7704 13.6836C8.39039 13.537 8.03038 13.3636 7.67704 13.1636C7.65037 13.1503 7.65037 13.1103 7.67037 13.0903C7.74371 13.0369 7.81704 12.9769 7.89038 12.9236C7.90371 12.9103 7.92371 12.9103 7.93705 12.9169C10.2304 13.9636 12.7038 13.9636 14.9706 12.9169C14.9839 12.9103 15.0039 12.9103 15.0172 12.9236C15.0906 12.9836 15.1639 13.0369 15.2372 13.0969C15.2639 13.1169 15.2639 13.1569 15.2306 13.1703C14.8839 13.3769 14.5172 13.5436 14.1372 13.6903C14.1106 13.697 14.1039 13.7303 14.1106 13.7503C14.3239 14.157 14.5639 14.5436 14.8239 14.9103C14.8439 14.917 14.8639 14.9237 14.8839 14.917C16.0306 14.5636 17.184 14.0303 18.384 13.1503C18.3973 13.1436 18.404 13.1303 18.404 13.1169C18.6973 10.0969 17.9173 7.47679 16.3373 5.15006C16.3306 5.14339 16.3239 5.13672 16.3106 5.13672ZM9.14375 11.5236C8.45706 11.5236 7.88371 10.8902 7.88371 10.1102C7.88371 9.33017 8.44373 8.69682 9.14375 8.69682C9.85043 8.69682 10.4104 9.33684 10.4038 10.1102C10.4038 10.8902 9.84377 11.5236 9.14375 11.5236ZM13.7905 11.5236C13.1039 11.5236 12.5305 10.8902 12.5305 10.1102C12.5305 9.33017 13.0905 8.69682 13.7905 8.69682C14.4972 8.69682 15.0572 9.33684 15.0506 10.1102C15.0506 10.8902 14.4972 11.5236 13.7905 11.5236Z" fill="url(#paint1_linear_2125_4078)"/>
</g>
<defs>
<filter id="filter0_d_2125_4078" x="0.464844" y="0.25" width="22" height="18.6697" filterUnits="userSpaceOnUse" color-interpolation-filters="sRGB">
<feFlood flood-opacity="0" result="BackgroundImageFix"/>
<feColorMatrix in="SourceAlpha" type="matrix" values="0 0 0 0 0 0 0 0 0 0 0 0 0 0 0 0 0 0 127 0" result="hardAlpha"/>
<feOffset/>
<feGaussianBlur stdDeviation="2"/>
<feComposite in2="hardAlpha" operator="out"/>
<feColorMatrix type="matrix" values="0 0 0 0 0 0 0 0 0 0 0 0 0 0 0 0 0 0 0.9 0"/>
<feBlend mode="normal" in2="BackgroundImageFix" result="effect1_dropShadow_2125_4078"/>
<feBlend mode="normal" in="SourceGraphic" in2="effect1_dropShadow_2125_4078" result="shape"/>
</filter>
<linearGradient id="paint0_linear_2125_4078" x1="11.4648" y1="4.25" x2="11.4648" y2="14.9198" gradientUnits="userSpaceOnUse">
<stop stop-color="#FFBF74"/>
<stop offset="1" stop-color="#B76A11"/>
</linearGradient>
<linearGradient id="paint1_linear_2125_4078" x1="11.4648" y1="4.25" x2="11.4648" y2="14.9198" gradientUnits="userSpaceOnUse">
<stop stop-color="#FFBF74"/>
<stop offset="1" stop-color="#B76A11"/>
</linearGradient>
</defs>
</svg>
