<?xml version="1.0" encoding="UTF-8"?> <svg xmlns="http://www.w3.org/2000/svg" width="56" height="56" viewBox="0 0 56 56" fill="none"><g clip-path="url(#clip0_2564_5529)"><path d="M17.4245 12.9993C15.7095 12.9993 15.0783 13.6318 15.0783 15.348V36.0493C15.0768 36.23 15.0852 36.4107 15.1033 36.5905C15.142 36.9655 15.1495 37.328 15.4983 37.7405C15.532 37.7818 15.887 38.0468 15.887 38.0468C16.0783 38.1405 16.2095 38.2093 16.4245 38.2968L26.8433 42.6605C27.3845 42.9093 27.6108 43.0055 28.0033 42.998H28.0058C28.3983 43.0055 28.6245 42.9093 29.1658 42.6605L39.5845 38.2955C39.7995 38.208 39.9308 38.1405 40.122 38.0455C40.122 38.0455 40.477 37.7818 40.5108 37.7418C40.8608 37.3293 40.867 36.9655 40.9058 36.5918C40.9239 36.4115 40.9323 36.2304 40.9308 36.0493V15.348C40.9308 13.6318 40.2983 12.998 38.5833 12.998L17.4245 12.9993ZM34.132 16.8868H34.982C36.4045 16.8868 37.092 17.578 37.092 19.0068V21.3568H35.3745V19.1068C35.3745 18.6455 35.162 18.4318 34.7208 18.4318H34.427C33.9683 18.4318 33.7558 18.6443 33.7558 19.1055V26.368C33.7558 26.8293 33.9683 27.043 34.427 27.043H34.7545C35.1958 27.043 35.4083 26.8293 35.4083 26.368V23.773H37.1245V26.4518C37.1245 27.8818 36.422 28.5893 34.9995 28.5893H34.132C32.7095 28.5893 32.007 27.8818 32.007 26.4518V19.0243C32.007 17.5943 32.7095 16.888 34.132 16.888V16.8868ZM18.8995 16.9868H22.792V18.5793H20.6495V21.833H22.7095V23.4268H20.6495V26.8943H22.8245V28.488H18.8995V16.9868ZM23.6695 16.9868H26.417C27.8395 16.9868 28.542 17.6918 28.542 19.1218V22.178C28.542 23.608 27.8395 24.3155 26.417 24.3155H25.4183V28.488H23.6683L23.6695 16.9868ZM29.332 16.9868H31.082V28.488H29.332V16.9868ZM25.4195 18.5305V22.7705H26.1383C26.5808 22.7705 26.792 22.5568 26.792 22.0955V19.2055C26.792 18.7455 26.5795 18.5305 26.1383 18.5305H25.4195ZM20.7445 31.2143C20.9968 31.2151 21.247 31.2608 21.4833 31.3493C21.7061 31.4403 21.9129 31.5665 22.0958 31.723L21.5308 32.4055C21.4145 32.3066 21.2849 32.2246 21.1458 32.1618C21.002 32.1024 20.8475 32.0735 20.692 32.0768C20.5714 32.0774 20.4523 32.1029 20.342 32.1518C20.2361 32.2004 20.1409 32.2697 20.062 32.3555C19.9814 32.4446 19.9174 32.5475 19.8733 32.6593C19.8263 32.7783 19.8025 32.9051 19.8033 33.033V33.043C19.8037 33.1753 19.8274 33.3065 19.8733 33.4305C19.9165 33.5452 19.9834 33.6496 20.0695 33.7368C20.1538 33.8233 20.2551 33.8914 20.367 33.9368C20.4874 33.9853 20.616 34.0099 20.7458 34.0093C20.9414 34.0164 21.1348 33.966 21.302 33.8643V33.4405H20.617V32.7343H22.2158V34.303C22.0183 34.4636 21.7974 34.593 21.5608 34.6868C21.2889 34.7929 20.9989 34.8452 20.707 34.8405C20.4499 34.8448 20.1944 34.7993 19.9545 34.7068C19.7334 34.6207 19.5307 34.4935 19.357 34.3318C19.1879 34.1706 19.0527 33.9773 18.9595 33.763C18.8606 33.5344 18.8115 33.2872 18.8158 33.038V33.028C18.8125 32.7833 18.8606 32.5406 18.957 32.3155C19.0501 32.1013 19.1824 31.9062 19.347 31.7405C19.5162 31.5728 19.7178 31.4414 19.9395 31.3543C20.1775 31.2607 20.4313 31.2136 20.687 31.2155H20.7433L20.7445 31.2143ZM35.6983 31.2243C35.9578 31.2235 36.2159 31.2632 36.4633 31.3418C36.6938 31.4178 36.9085 31.5351 37.097 31.688L36.6145 32.3705C36.4646 32.2631 36.3006 32.1768 36.127 32.1143C35.9713 32.0586 35.8074 32.029 35.642 32.0268C35.5507 32.0207 35.4598 32.0435 35.382 32.0918C35.3552 32.1087 35.3331 32.1321 35.3178 32.1599C35.3025 32.1877 35.2945 32.2188 35.2945 32.2505V32.2605C35.2938 32.2974 35.3034 32.3338 35.322 32.3655C35.3462 32.4007 35.3789 32.4291 35.417 32.448C35.4762 32.4779 35.5376 32.503 35.6008 32.523C35.6783 32.548 35.7766 32.5735 35.8958 32.5993C36.0785 32.6367 36.2582 32.6877 36.4333 32.7518C36.5794 32.8028 36.7174 32.8743 36.8433 32.9643C36.9513 33.0432 37.0399 33.1458 37.102 33.2643C37.1643 33.3958 37.1947 33.5401 37.1908 33.6855V33.6955C37.1924 33.8602 37.1578 34.0232 37.0895 34.173C37.0229 34.3123 36.9249 34.4342 36.8033 34.5293C36.6727 34.633 36.5227 34.7095 36.362 34.7543C36.1751 34.8075 35.9814 34.8332 35.787 34.8305C35.4853 34.8312 35.1854 34.7823 34.8995 34.6855C34.6256 34.5933 34.3734 34.4461 34.1583 34.253L34.6958 33.6105C35.0425 33.8897 35.4175 34.0293 35.8208 34.0293C35.9229 34.0351 36.0248 34.0135 36.1158 33.9668C36.1473 33.9492 36.1735 33.9234 36.1915 33.8922C36.2095 33.8609 36.2188 33.8254 36.2183 33.7893V33.7793C36.2188 33.7455 36.2101 33.7123 36.1933 33.683C36.1702 33.6484 36.1389 33.62 36.102 33.6005C36.0446 33.5701 35.9848 33.5442 35.9233 33.523C35.8273 33.4933 35.7301 33.4675 35.632 33.4455C35.458 33.4059 35.2858 33.3587 35.1158 33.3043C34.9691 33.2576 34.8298 33.1902 34.702 33.1043C34.5867 33.0265 34.4916 32.9224 34.4245 32.8005C34.3524 32.6618 34.3171 32.5069 34.322 32.3505V32.3405C34.3218 32.1862 34.3532 32.0335 34.4145 31.8918C34.4761 31.7553 34.5675 31.6345 34.682 31.538C34.8073 31.434 34.9517 31.3555 35.107 31.3068C35.288 31.2491 35.4771 31.2212 35.667 31.2243H35.6983ZM24.0008 31.2555H24.9283L26.407 34.768H25.3758L25.122 34.1443H23.782L23.5345 34.7668H22.522L24.0008 31.2555ZM26.747 31.2805H27.7645L28.5933 32.6305L29.422 31.2805H30.4395V34.768H29.482V32.7655L28.5933 34.1293H28.5733L27.6895 32.7755V34.7668H26.747V31.2805ZM31.0833 31.2805H33.877V32.103H32.0358V32.6305H33.7033V33.393H32.0358V33.9455H33.902V34.768H31.0833V31.2805ZM24.4583 32.4018L24.0645 33.393H24.8445L24.4583 32.4018ZM23.027 38.8893H33.0445L27.932 40.5743L23.027 38.8893Z" fill="#7E5525"></path></g><defs><clipPath id="clip0_2564_5529"><rect width="30" height="30" fill="white" transform="translate(13 13)"></rect></clipPath></defs></svg> 