<?xml version="1.0" encoding="UTF-8"?> <svg xmlns="http://www.w3.org/2000/svg" width="217" height="56" viewBox="0 0 217 56" fill="none"><g clip-path="url(#clip0_646_5411)"><path d="M217 0L177 56H40L0 0H217Z" fill="#050505"></path><path d="M177 56L217.011 0" stroke="url(#paint0_linear_646_5411)" stroke-linecap="round"></path><path d="M40.0078 56L-0.00286484 0" stroke="url(#paint1_linear_646_5411)" stroke-linecap="round"></path><line x1="217" y1="0.5" x2="-4.37114e-08" y2="0.499981" stroke="#916632"></line><path d="M58.9383 28.8734L56.0285 30.5202L53.4187 27.9267L56.0493 25.3125L58.9383 26.9474C59.1088 27.0438 59.2506 27.1838 59.3493 27.3529C59.448 27.5221 59.5 27.7145 59.5 27.9104C59.5 28.1063 59.448 28.2986 59.3493 28.4678C59.2506 28.637 59.1088 28.777 58.9383 28.8734ZM43.5832 19.686C43.5281 19.8198 43.4998 19.9631 43.5 20.1077V35.7123C43.5 35.8734 43.5334 36.0234 43.5921 36.1578L51.8744 27.926L43.5832 19.686ZM52.6465 27.159L55.0655 24.7549L45.152 19.1447C44.9395 19.0226 44.692 18.9758 44.4496 19.0118L52.6465 27.159ZM52.6465 28.6937L44.4793 36.8111C44.7006 36.8379 44.9337 36.7993 45.152 36.6753L55.0447 31.077L52.6465 28.6937Z" fill="#F2C7A0"></path><path d="M76.3919 29.68V27.68H83.1319C83.1585 28.7067 83.0252 29.68 82.7319 30.6C82.4385 31.5067 81.9985 32.3133 81.4119 33.02C80.8252 33.7267 80.0919 34.2867 79.2119 34.7C78.3452 35.1 77.3585 35.3 76.2519 35.3C75.1985 35.3 74.2252 35.1267 73.3319 34.78C72.4385 34.42 71.6585 33.9133 70.9919 33.26C70.3385 32.6067 69.8319 31.8333 69.4719 30.94C69.1119 30.0467 68.9319 29.0667 68.9319 28C68.9319 26.9333 69.1119 25.96 69.4719 25.08C69.8452 24.1867 70.3585 23.42 71.0119 22.78C71.6785 22.1267 72.4585 21.6267 73.3519 21.28C74.2585 20.9333 75.2385 20.76 76.2919 20.76C77.2119 20.76 78.0452 20.8867 78.7919 21.14C79.5385 21.38 80.2052 21.7333 80.7919 22.2C81.3919 22.6533 81.8985 23.2067 82.3119 23.86L80.3919 25.14C80.0052 24.4733 79.4652 23.94 78.7719 23.54C78.0919 23.14 77.2652 22.94 76.2919 22.94C75.3852 22.94 74.5652 23.1533 73.8319 23.58C73.0985 23.9933 72.5119 24.58 72.0719 25.34C71.6319 26.0867 71.4119 26.9733 71.4119 28C71.4119 29.0133 71.6252 29.9067 72.0519 30.68C72.4919 31.44 73.0785 32.0333 73.8119 32.46C74.5452 32.8867 75.3719 33.1 76.2919 33.1C76.9185 33.1 77.4785 33.0133 77.9719 32.84C78.4652 32.6667 78.8919 32.42 79.2519 32.1C79.6119 31.78 79.9119 31.4133 80.1519 31C80.3919 30.5867 80.5719 30.1467 80.6919 29.68H76.3919ZM84.6722 30.4C84.6722 29.4533 84.8855 28.62 85.3122 27.9C85.7522 27.18 86.3455 26.62 87.0922 26.22C87.8389 25.8067 88.6855 25.6 89.6322 25.6C90.5789 25.6 91.4189 25.8067 92.1522 26.22C92.8989 26.62 93.4922 27.18 93.9322 27.9C94.3722 28.62 94.5922 29.4533 94.5922 30.4C94.5922 31.3333 94.3722 32.1667 93.9322 32.9C93.4922 33.62 92.8989 34.1867 92.1522 34.6C91.4189 35 90.5789 35.2 89.6322 35.2C88.6855 35.2 87.8389 35 87.0922 34.6C86.3455 34.1867 85.7522 33.62 85.3122 32.9C84.8855 32.1667 84.6722 31.3333 84.6722 30.4ZM86.8922 30.4C86.8922 30.9733 87.0122 31.48 87.2522 31.92C87.4922 32.3467 87.8189 32.6867 88.2322 32.94C88.6455 33.18 89.1122 33.3 89.6322 33.3C90.1389 33.3 90.5989 33.18 91.0122 32.94C91.4389 32.6867 91.7722 32.3467 92.0122 31.92C92.2522 31.48 92.3722 30.9733 92.3722 30.4C92.3722 29.8267 92.2522 29.32 92.0122 28.88C91.7722 28.44 91.4389 28.1 91.0122 27.86C90.5989 27.62 90.1389 27.5 89.6322 27.5C89.1122 27.5 88.6455 27.62 88.2322 27.86C87.8189 28.1 87.4922 28.44 87.2522 28.88C87.0122 29.32 86.8922 29.8267 86.8922 30.4ZM95.9417 30.4C95.9417 29.4533 96.1551 28.62 96.5817 27.9C97.0217 27.18 97.6151 26.62 98.3617 26.22C99.1084 25.8067 99.9551 25.6 100.902 25.6C101.848 25.6 102.688 25.8067 103.422 26.22C104.168 26.62 104.762 27.18 105.202 27.9C105.642 28.62 105.862 29.4533 105.862 30.4C105.862 31.3333 105.642 32.1667 105.202 32.9C104.762 33.62 104.168 34.1867 103.422 34.6C102.688 35 101.848 35.2 100.902 35.2C99.9551 35.2 99.1084 35 98.3617 34.6C97.6151 34.1867 97.0217 33.62 96.5817 32.9C96.1551 32.1667 95.9417 31.3333 95.9417 30.4ZM98.1617 30.4C98.1617 30.9733 98.2817 31.48 98.5217 31.92C98.7617 32.3467 99.0884 32.6867 99.5017 32.94C99.9151 33.18 100.382 33.3 100.902 33.3C101.408 33.3 101.868 33.18 102.282 32.94C102.708 32.6867 103.042 32.3467 103.282 31.92C103.522 31.48 103.642 30.9733 103.642 30.4C103.642 29.8267 103.522 29.32 103.282 28.88C103.042 28.44 102.708 28.1 102.282 27.86C101.868 27.62 101.408 27.5 100.902 27.5C100.382 27.5 99.9151 27.62 99.5017 27.86C99.0884 28.1 98.7617 28.44 98.5217 28.88C98.2817 29.32 98.1617 29.8267 98.1617 30.4ZM107.391 35.62H109.531C109.545 36.0333 109.658 36.4067 109.871 36.74C110.098 37.0733 110.405 37.3333 110.791 37.52C111.178 37.7067 111.625 37.8 112.131 37.8C112.585 37.8 113.018 37.6933 113.431 37.48C113.845 37.2667 114.178 36.94 114.431 36.5C114.698 36.06 114.831 35.4933 114.831 34.8V25.8H116.951V34.8C116.951 35.9067 116.725 36.82 116.271 37.54C115.831 38.26 115.251 38.7933 114.531 39.14C113.811 39.5 113.031 39.68 112.191 39.68C111.191 39.68 110.338 39.5067 109.631 39.16C108.925 38.8267 108.378 38.3533 107.991 37.74C107.618 37.1267 107.418 36.42 107.391 35.62ZM107.211 30.36C107.211 29.3333 107.418 28.4733 107.831 27.78C108.245 27.0733 108.791 26.5333 109.471 26.16C110.165 25.7867 110.905 25.6 111.691 25.6C112.465 25.6 113.138 25.7933 113.711 26.18C114.298 26.5533 114.758 27.0933 115.091 27.8C115.438 28.5067 115.611 29.36 115.611 30.36C115.611 31.3467 115.438 32.1933 115.091 32.9C114.758 33.6067 114.298 34.1533 113.711 34.54C113.138 34.9133 112.465 35.1 111.691 35.1C110.905 35.1 110.165 34.9133 109.471 34.54C108.791 34.1667 108.245 33.6267 107.831 32.92C107.418 32.2133 107.211 31.36 107.211 30.36ZM109.451 30.36C109.451 30.9733 109.578 31.4933 109.831 31.92C110.085 32.3467 110.418 32.6733 110.831 32.9C111.258 33.1133 111.718 33.22 112.211 33.22C112.625 33.22 113.031 33.1133 113.431 32.9C113.845 32.6867 114.178 32.3667 114.431 31.94C114.698 31.5 114.831 30.9733 114.831 30.36C114.831 29.88 114.751 29.4667 114.591 29.12C114.445 28.76 114.245 28.46 113.991 28.22C113.738 27.9667 113.451 27.78 113.131 27.66C112.825 27.54 112.518 27.48 112.211 27.48C111.718 27.48 111.258 27.5933 110.831 27.82C110.418 28.0333 110.085 28.3533 109.831 28.78C109.578 29.2067 109.451 29.7333 109.451 30.36ZM119.63 19.4H121.79V35H119.63V19.4ZM128.552 35.2C127.619 35.2 126.792 35 126.072 34.6C125.365 34.2 124.819 33.64 124.432 32.92C124.045 32.2 123.852 31.36 123.852 30.4C123.852 29.4267 124.045 28.58 124.432 27.86C124.832 27.14 125.392 26.5867 126.112 26.2C126.832 25.8 127.679 25.6 128.652 25.6C129.625 25.6 130.452 25.7867 131.132 26.16C131.812 26.5333 132.332 27.0733 132.692 27.78C133.065 28.4733 133.252 29.3133 133.252 30.3C133.252 30.4067 133.245 30.52 133.232 30.64C133.232 30.76 133.225 30.8467 133.212 30.9L125.132 30.9V29.42L131.372 29.42L130.712 30.34C130.752 30.26 130.792 30.1533 130.832 30.02C130.885 29.8733 130.912 29.7533 130.912 29.66C130.912 29.1667 130.812 28.74 130.612 28.38C130.425 28.02 130.159 27.74 129.812 27.54C129.479 27.34 129.085 27.24 128.632 27.24C128.085 27.24 127.619 27.36 127.232 27.6C126.845 27.84 126.552 28.1867 126.352 28.64C126.152 29.0933 126.045 29.6533 126.032 30.32C126.032 30.9867 126.132 31.5533 126.332 32.02C126.532 32.4733 126.825 32.82 127.212 33.06C127.612 33.3 128.092 33.42 128.652 33.42C129.239 33.42 129.752 33.3 130.192 33.06C130.632 32.82 130.999 32.4533 131.292 31.96L133.152 32.72C132.672 33.5467 132.052 34.1667 131.292 34.58C130.532 34.9933 129.619 35.2 128.552 35.2ZM141.49 21H143.85V35H141.49V21ZM142.89 23.08V21L145.71 21C146.723 21 147.603 21.18 148.35 21.54C149.11 21.8867 149.696 22.3867 150.11 23.04C150.523 23.68 150.73 24.4467 150.73 25.34C150.73 26.2333 150.523 27.0067 150.11 27.66C149.696 28.3133 149.11 28.82 148.35 29.18C147.603 29.5267 146.723 29.7 145.71 29.7H142.89V27.62H145.71C146.523 27.62 147.176 27.4267 147.67 27.04C148.163 26.6533 148.41 26.0867 148.41 25.34C148.41 24.5933 148.163 24.0333 147.67 23.66C147.176 23.2733 146.523 23.08 145.71 23.08H142.89ZM152.872 19.4H155.032V35H152.872V19.4ZM159.154 32.14C159.154 32.4467 159.227 32.7133 159.374 32.94C159.521 33.1533 159.721 33.3133 159.974 33.42C160.241 33.5267 160.541 33.58 160.874 33.58C161.301 33.58 161.687 33.4933 162.034 33.32C162.394 33.1467 162.681 32.8933 162.894 32.56C163.121 32.2133 163.234 31.8133 163.234 31.36L163.554 32.56C163.554 33.1467 163.381 33.64 163.034 34.04C162.701 34.4267 162.274 34.72 161.754 34.92C161.247 35.1067 160.727 35.2 160.194 35.2C159.621 35.2 159.087 35.0867 158.594 34.86C158.101 34.6333 157.707 34.3 157.414 33.86C157.121 33.42 156.974 32.8867 156.974 32.26C156.974 31.3667 157.287 30.66 157.914 30.14C158.541 29.6067 159.427 29.34 160.574 29.34C161.187 29.34 161.714 29.4067 162.154 29.54C162.607 29.6733 162.981 29.8333 163.274 30.02C163.567 30.1933 163.774 30.3533 163.894 30.5V31.6C163.481 31.3067 163.041 31.0933 162.574 30.96C162.107 30.8267 161.614 30.76 161.094 30.76C160.641 30.76 160.274 30.82 159.994 30.94C159.714 31.0467 159.501 31.2 159.354 31.4C159.221 31.6 159.154 31.8467 159.154 32.14ZM158.474 28.2L157.594 26.68C158.007 26.4267 158.541 26.18 159.194 25.94C159.861 25.7 160.621 25.58 161.474 25.58C162.234 25.58 162.901 25.6933 163.474 25.92C164.061 26.1467 164.521 26.4733 164.854 26.9C165.187 27.3133 165.354 27.8267 165.354 28.44V35H163.234V28.86C163.234 28.5667 163.181 28.3267 163.074 28.14C162.981 27.9533 162.847 27.8 162.674 27.68C162.501 27.56 162.294 27.4733 162.054 27.42C161.814 27.3667 161.554 27.34 161.274 27.34C160.847 27.34 160.441 27.3933 160.054 27.5C159.681 27.5933 159.354 27.7133 159.074 27.86C158.807 27.9933 158.607 28.1067 158.474 28.2ZM175.915 25.8L169.915 39.4H167.615L170.015 33.92L166.315 25.8H168.795L171.735 33.08L170.715 33.02L173.595 25.8H175.915Z" fill="#F2C7A0"></path></g><defs><linearGradient id="paint0_linear_646_5411" x1="203.505" y1="0" x2="203.505" y2="50" gradientUnits="userSpaceOnUse"><stop stop-color="#916632"></stop><stop offset="1" stop-color="#B76A11" stop-opacity="0.08"></stop></linearGradient><linearGradient id="paint1_linear_646_5411" x1="13.5025" y1="0" x2="13.5025" y2="50" gradientUnits="userSpaceOnUse"><stop stop-color="#916632"></stop><stop offset="1" stop-color="#B76A11" stop-opacity="0.08"></stop></linearGradient><clipPath id="clip0_646_5411"><rect width="217" height="56" fill="white"></rect></clipPath></defs></svg> 