<?xml version="1.0" encoding="UTF-8"?> <svg xmlns="http://www.w3.org/2000/svg" width="56" height="56" viewBox="0 0 56 56" fill="none"><g clip-path="url(#clip0_2564_5527)"><path d="M45.1899 35.1994C44.5058 36.0633 42.8305 36.6789 42.8305 36.6789L30.3705 41.1605V37.8546L39.5405 34.5821C40.581 34.2098 40.7401 33.6817 39.8953 33.4048C39.0505 33.1264 37.5217 33.206 36.4796 33.5814L30.3705 35.7355V32.3071L30.7221 32.1862C30.7221 32.1862 32.488 31.561 34.9698 31.2857C37.4532 31.0121 40.4935 31.3239 42.8798 32.2292C45.5685 33.0803 45.8708 34.3355 45.1899 35.1994ZM31.5557 29.5707V21.1214C31.5557 20.1287 31.3728 19.2155 30.4421 18.9577C29.7309 18.7287 29.2887 19.3905 29.2887 20.3816V41.5456L23.5884 39.7335V14.5C26.0114 14.9502 29.5432 16.0161 31.4412 16.6557C36.2696 18.315 37.9067 20.3816 37.9067 25.035C37.9067 29.5707 35.1098 31.2905 31.5557 29.5723M13.1282 37.511C10.3663 36.7314 9.90655 35.1087 11.165 34.1748C12.3279 33.3126 14.307 32.6635 14.307 32.6635L22.4811 29.7521V33.0707L16.5979 35.1787C15.5591 35.551 15.4 36.0792 16.2432 36.356C17.0895 36.6344 18.6184 36.5549 19.6589 36.181L22.4811 35.1564V38.1235L21.918 38.2189C19.0957 38.6803 16.0904 38.4878 13.1282 37.511Z" fill="#7E5525"></path></g><defs><clipPath id="clip0_2564_5527"><rect width="35" height="35" fill="white" transform="translate(10.5 10.5)"></rect></clipPath></defs></svg> 