<?xml version="1.0" encoding="UTF-8"?> <svg xmlns="http://www.w3.org/2000/svg" width="217" height="56" viewBox="0 0 217 56" fill="none"><g clip-path="url(#clip0_646_5427)"><path d="M217 0L177 56H40L0 0H217Z" fill="#050505"></path><path d="M177 56L217.011 0" stroke="url(#paint0_linear_646_5427)" stroke-linecap="round"></path><path d="M40.0078 56L-0.00286484 0" stroke="url(#paint1_linear_646_5427)" stroke-linecap="round"></path><line x1="217" y1="0.5" x2="-4.37114e-08" y2="0.499981" stroke="#916632"></line><path d="M77.9827 18C72.7205 18 68.4096 22.0505 68 27.1981L73.3691 29.4141C73.824 29.1035 74.3736 28.9215 74.9648 28.9215C75.0178 28.9215 75.0706 28.9233 75.1229 28.9263L77.5105 25.4714C77.5105 25.4549 77.5103 25.4389 77.5103 25.4226C77.5103 23.3431 79.2048 21.6513 81.2881 21.6513C83.3712 21.6513 85.0657 23.3431 85.0657 25.4226C85.0657 27.5021 83.3712 29.1941 81.2881 29.1941C81.2594 29.1941 81.2308 29.1935 81.2023 29.1928L77.797 31.6184C77.7988 31.6625 77.8004 31.7075 77.8004 31.7522C77.8004 33.3134 76.5284 34.5829 74.9648 34.5829C73.5923 34.5829 72.4447 33.605 72.1847 32.3099L68.3451 30.7252C69.534 34.9227 73.3969 38 77.9827 38C83.5152 38 88 33.5227 88 28.0003C88 22.4771 83.515 18 77.9827 18Z" fill="#F2C7A0"></path><path d="M74.2774 33.1734L73.0469 32.6659C73.2649 33.1192 73.6422 33.4987 74.1431 33.7072C75.226 34.1575 76.4744 33.6446 76.9257 32.5626C77.1442 32.0395 77.1456 31.462 76.9289 30.9375C76.7126 30.4128 76.3045 30.0037 75.7799 29.7853C75.2593 29.569 74.7015 29.5769 74.2115 29.7616L75.4825 30.2862C76.2812 30.6185 76.6589 31.5341 76.3261 32.3314C75.9939 33.1289 75.0761 33.506 74.2774 33.1734Z" fill="#F2C7A0"></path><path d="M83.8058 25.4226C83.8058 24.0371 82.6768 22.9097 81.2887 22.9097C79.9008 22.9097 78.7715 24.0371 78.7715 25.4226C78.7715 26.8083 79.9008 27.9352 81.2887 27.9352C82.6768 27.935 83.8058 26.8081 83.8058 25.4226ZM79.4019 25.4183C79.4019 24.3757 80.2486 23.5307 81.293 23.5307C82.3373 23.5307 83.184 24.3757 83.184 25.4183C83.184 26.4609 82.3373 27.3059 81.293 27.3059C80.2486 27.3059 79.4019 26.4606 79.4019 25.4183Z" fill="#F2C7A0"></path><path d="M97.5952 30.5C97.9019 31.0333 98.2286 31.5067 98.5752 31.92C98.9352 32.32 99.3286 32.6333 99.7552 32.86C100.182 33.0733 100.662 33.18 101.195 33.18C101.835 33.18 102.355 33.0067 102.755 32.66C103.155 32.3133 103.355 31.8667 103.355 31.32C103.355 30.8 103.229 30.3867 102.975 30.08C102.722 29.76 102.369 29.4933 101.915 29.28C101.475 29.0533 100.962 28.8333 100.375 28.62C100.029 28.5 99.6419 28.34 99.2152 28.14C98.7886 27.9267 98.3819 27.6667 97.9952 27.36C97.6086 27.04 97.2886 26.6533 97.0352 26.2C96.7819 25.7333 96.6552 25.1733 96.6552 24.52C96.6552 23.7733 96.8486 23.12 97.2352 22.56C97.6219 21.9867 98.1419 21.5467 98.7952 21.24C99.4619 20.92 100.215 20.76 101.055 20.76C101.882 20.76 102.602 20.9067 103.215 21.2C103.829 21.4933 104.342 21.8667 104.755 22.32C105.182 22.7733 105.515 23.2467 105.755 23.74L103.835 24.82C103.662 24.4733 103.442 24.1533 103.175 23.86C102.909 23.5533 102.595 23.3133 102.235 23.14C101.889 22.9533 101.482 22.86 101.015 22.86C100.362 22.86 99.8819 23.0133 99.5752 23.32C99.2686 23.6133 99.1152 23.96 99.1152 24.36C99.1152 24.72 99.2219 25.0467 99.4352 25.34C99.6619 25.62 100.009 25.8867 100.475 26.14C100.942 26.3933 101.549 26.6533 102.295 26.92C102.709 27.0667 103.122 27.2533 103.535 27.48C103.962 27.7067 104.349 27.9933 104.695 28.34C105.042 28.6733 105.315 29.0667 105.515 29.52C105.729 29.9733 105.835 30.5067 105.835 31.12C105.835 31.7733 105.709 32.36 105.455 32.88C105.202 33.4 104.855 33.84 104.415 34.2C103.975 34.5467 103.475 34.8133 102.915 35C102.369 35.2 101.795 35.3 101.195 35.3C100.369 35.3 99.6019 35.14 98.8952 34.82C98.2019 34.4867 97.5952 34.0467 97.0752 33.5C96.5552 32.9533 96.1419 32.36 95.8352 31.72L97.5952 30.5ZM106.797 25.8L112.017 25.8V27.7L106.797 27.7V25.8ZM108.337 22.6L110.477 22.6V35H108.337V22.6ZM117.507 35.2C116.574 35.2 115.747 35 115.027 34.6C114.32 34.2 113.774 33.64 113.387 32.92C113 32.2 112.807 31.36 112.807 30.4C112.807 29.4267 113 28.58 113.387 27.86C113.787 27.14 114.347 26.5867 115.067 26.2C115.787 25.8 116.634 25.6 117.607 25.6C118.58 25.6 119.407 25.7867 120.087 26.16C120.767 26.5333 121.287 27.0733 121.647 27.78C122.02 28.4733 122.207 29.3133 122.207 30.3C122.207 30.4067 122.2 30.52 122.187 30.64C122.187 30.76 122.18 30.8467 122.167 30.9H114.087V29.42H120.327L119.667 30.34C119.707 30.26 119.747 30.1533 119.787 30.02C119.84 29.8733 119.867 29.7533 119.867 29.66C119.867 29.1667 119.767 28.74 119.567 28.38C119.38 28.02 119.114 27.74 118.767 27.54C118.434 27.34 118.04 27.24 117.587 27.24C117.04 27.24 116.574 27.36 116.187 27.6C115.8 27.84 115.507 28.1867 115.307 28.64C115.107 29.0933 115 29.6533 114.987 30.32C114.987 30.9867 115.087 31.5533 115.287 32.02C115.487 32.4733 115.78 32.82 116.167 33.06C116.567 33.3 117.047 33.42 117.607 33.42C118.194 33.42 118.707 33.3 119.147 33.06C119.587 32.82 119.954 32.4533 120.247 31.96L122.107 32.72C121.627 33.5467 121.007 34.1667 120.247 34.58C119.487 34.9933 118.574 35.2 117.507 35.2ZM125.629 32.14C125.629 32.4467 125.702 32.7133 125.849 32.94C125.995 33.1533 126.195 33.3133 126.449 33.42C126.715 33.5267 127.015 33.58 127.349 33.58C127.775 33.58 128.162 33.4933 128.509 33.32C128.869 33.1467 129.155 32.8933 129.369 32.56C129.595 32.2133 129.709 31.8133 129.709 31.36L130.029 32.56C130.029 33.1467 129.855 33.64 129.509 34.04C129.175 34.4267 128.749 34.72 128.229 34.92C127.722 35.1067 127.202 35.2 126.669 35.2C126.095 35.2 125.562 35.0867 125.069 34.86C124.575 34.6333 124.182 34.3 123.889 33.86C123.595 33.42 123.449 32.8867 123.449 32.26C123.449 31.3667 123.762 30.66 124.389 30.14C125.015 29.6067 125.902 29.34 127.049 29.34C127.662 29.34 128.189 29.4067 128.629 29.54C129.082 29.6733 129.455 29.8333 129.749 30.02C130.042 30.1933 130.249 30.3533 130.369 30.5V31.6C129.955 31.3067 129.515 31.0933 129.049 30.96C128.582 30.8267 128.089 30.76 127.569 30.76C127.115 30.76 126.749 30.82 126.469 30.94C126.189 31.0467 125.975 31.2 125.829 31.4C125.695 31.6 125.629 31.8467 125.629 32.14ZM124.949 28.2L124.069 26.68C124.482 26.4267 125.015 26.18 125.669 25.94C126.335 25.7 127.095 25.58 127.949 25.58C128.709 25.58 129.375 25.6933 129.949 25.92C130.535 26.1467 130.995 26.4733 131.329 26.9C131.662 27.3133 131.829 27.8267 131.829 28.44V35H129.709V28.86C129.709 28.5667 129.655 28.3267 129.549 28.14C129.455 27.9533 129.322 27.8 129.149 27.68C128.975 27.56 128.769 27.4733 128.529 27.42C128.289 27.3667 128.029 27.34 127.749 27.34C127.322 27.34 126.915 27.3933 126.529 27.5C126.155 27.5933 125.829 27.7133 125.549 27.86C125.282 27.9933 125.082 28.1067 124.949 28.2ZM147.507 29.16V35H145.347V29.4C145.347 28.7067 145.22 28.1933 144.967 27.86C144.727 27.5133 144.34 27.34 143.807 27.34C143.447 27.34 143.127 27.42 142.847 27.58C142.58 27.74 142.367 27.9733 142.207 28.28C142.06 28.5867 141.987 28.96 141.987 29.4V35H139.827V29.4C139.827 28.7067 139.7 28.1933 139.447 27.86C139.207 27.5133 138.82 27.34 138.287 27.34C137.913 27.34 137.587 27.42 137.307 27.58C137.04 27.74 136.833 27.9733 136.687 28.28C136.54 28.5867 136.467 28.96 136.467 29.4V35H134.347V25.8H136.467V27.14C136.733 26.6333 137.08 26.2533 137.507 26C137.947 25.7333 138.46 25.6 139.047 25.6C139.727 25.6 140.287 25.74 140.727 26.02C141.18 26.3 141.507 26.7067 141.707 27.24C142.027 26.7067 142.427 26.3 142.907 26.02C143.4 25.74 143.96 25.6 144.587 25.6C145.24 25.6 145.78 25.74 146.207 26.02C146.647 26.2867 146.973 26.6867 147.187 27.22C147.4 27.7533 147.507 28.4 147.507 29.16Z" fill="#F2C7A0"></path></g><defs><linearGradient id="paint0_linear_646_5427" x1="203.505" y1="0" x2="203.505" y2="50" gradientUnits="userSpaceOnUse"><stop stop-color="#916632"></stop><stop offset="1" stop-color="#B76A11" stop-opacity="0.08"></stop></linearGradient><linearGradient id="paint1_linear_646_5427" x1="13.5025" y1="0" x2="13.5025" y2="50" gradientUnits="userSpaceOnUse"><stop stop-color="#916632"></stop><stop offset="1" stop-color="#B76A11" stop-opacity="0.08"></stop></linearGradient><clipPath id="clip0_646_5427"><rect width="217" height="56" fill="white"></rect></clipPath></defs></svg> 